<mxfile host="app.diagrams.net" agent="Mozilla/5.0 (Windows NT 10.0; Win64; x64) AppleWebKit/537.36 (KHTML, like Gecko) Chrome/128.0.0.0 Safari/537.36" version="24.7.16" pages="4">
  <diagram name="Page-1" id="hPm6MpKzoafMhO2EzFqa">
    <mxGraphModel dx="1838" dy="994" grid="1" gridSize="10" guides="1" tooltips="1" connect="1" arrows="1" fold="1" page="1" pageScale="1" pageWidth="850" pageHeight="1100" math="0" shadow="0">
      <root>
        <mxCell id="0" />
        <mxCell id="1" parent="0" />
        <mxCell id="F12QAWH-6ixrInZiE0VT-1" value="" style="shape=mxgraph.sap.icon;labelPosition=center;verticalLabelPosition=bottom;align=center;verticalAlign=top;strokeWidth=1;strokeColor=#D5DADD;fillColor=#EDEFF0;gradientColor=#FCFCFC;gradientDirection=west;aspect=fixed;SAPIcon=SAP_Integration_Suite" vertex="1" parent="1">
          <mxGeometry x="390" y="393" width="70" height="70" as="geometry" />
        </mxCell>
        <mxCell id="F12QAWH-6ixrInZiE0VT-2" value="&lt;font face=&quot;arial&quot; color=&quot;#1d2d3e&quot;&gt;&lt;span style=&quot;font-size: 14px;&quot;&gt;&lt;b&gt;SAP Integration Suite&lt;/b&gt;&lt;/span&gt;&lt;/font&gt;" style="text;html=1;align=left;verticalAlign=middle;resizable=0;points=[];autosize=1;strokeColor=none;fillColor=none;fontSize=12;fontColor=default;fontFamily=Helvetica;" vertex="1" parent="1">
          <mxGeometry x="356" y="460" width="170" height="30" as="geometry" />
        </mxCell>
        <mxCell id="F12QAWH-6ixrInZiE0VT-3" value="SuccessFactors" style="image;image=img/lib/sap/SAP_Logo.svg;editableCssRules=.*;verticalLabelPosition=middle;labelBackgroundColor=none;verticalAlign=middle;imageAspect=0;labelPosition=right;align=left;fontSize=16;fontStyle=1;spacingLeft=0;fontColor=#002A86;spacing=0;" vertex="1" parent="1">
          <mxGeometry x="10" y="418.5" width="37" height="19" as="geometry" />
        </mxCell>
        <mxCell id="F12QAWH-6ixrInZiE0VT-4" value="" style="sketch=0;outlineConnect=0;fontColor=#232F3E;gradientColor=none;fillColor=#01A88D;strokeColor=none;dashed=0;verticalLabelPosition=bottom;verticalAlign=top;align=center;html=1;fontSize=12;fontStyle=0;aspect=fixed;shape=mxgraph.aws4.transfer_for_sftp_resource;" vertex="1" parent="1">
          <mxGeometry x="390" y="560" width="76" height="78" as="geometry" />
        </mxCell>
        <mxCell id="F12QAWH-6ixrInZiE0VT-8" value="" style="strokeColor=#0070F2;shadow=0;strokeWidth=2;rounded=1;absoluteArcSize=1;arcSize=20;" vertex="1" parent="1">
          <mxGeometry x="700" y="393" width="160" height="90" as="geometry" />
        </mxCell>
        <mxCell id="F12QAWH-6ixrInZiE0VT-9" value="3rd Party APIs &amp;&#xa;Applications" style="shape=image;editableCssRules=.*;part=1;verticalLabelPosition=bottom;labelBackgroundColor=default;verticalAlign=top;imageAspect=0;image=data:image/svg+xml,PHN2ZyB4bWxucz0iaHR0cDovL3d3dy53My5vcmcvMjAwMC9zdmciIHZpZXdCb3g9Ii0wLjUgLTAuNSAyOCAxOC40MTIiIGhlaWdodD0iMTguNDEyIiB3aWR0aD0iMjgiPiYjeGE7CSAgPHN0eWxlIHR5cGU9InRleHQvY3NzIj4uc3QwIHsgc3RvcC1jb2xvcjogcmdiKDM1LCAxNDksIDI1NSk7IH0gLnN0MSB7IHN0b3AtY29sb3I6IHJnYigwLCA4NywgMjEwKTsgfSA8L3N0eWxlPiYjeGE7CTxkZWZzPiYjeGE7CQk8bGluZWFyR3JhZGllbnQgZ3JhZGllbnRVbml0cz0idXNlclNwYWNlT25Vc2UiIHkyPSIyMi4wMDgiIHgyPSIxNC44NjkiIHkxPSIyLjExMyIgeDE9IjIuMDM5IiBpZD0iQSI+JiN4YTsJCQk8c3RvcCBjbGFzcz0ic3QwIi8+JiN4YTsJCQk8c3RvcCBjbGFzcz0ic3QxIiBvZmZzZXQ9IjEiLz4mI3hhOwkJPC9saW5lYXJHcmFkaWVudD4mI3hhOwk8L2RlZnM+JiN4YTsJPHBhdGggZmlsbD0idXJsKCNBKSIgZD0iTTUuOTAzIDYuMDQ3QzYuNDM0IDIuMzQ1IDkuNjE5LS41IDEzLjQ2Ny0uNWMyLjgwMSAwIDUuMjQ3IDEuNTA2IDYuNTc3IDMuNzQ5aC4xMjRjNC4wNDkgMCA3LjMzMSAzLjI4MiA3LjMzMSA3LjMzMXMtMy4yODIgNy4zMzEtNy4zMzEgNy4zMzFoLTQuMDU0Yy0uMDg3IDAtLjE3My0uMDAyLS4yNTktLjAwNS0uMDc4LjAwMy0uMTU1LjAwNS0uMjMzLjAwNUg1LjQzMmMtMy4yNzYgMC01LjkzMi0yLjY1Ni01LjkzMi01LjkzMnMyLjY1Ni01LjkzMiA1LjkzMi01LjkzMnpNMTMuNDY3IDIuM2MtMi42NzQgMC00Ljg0MiAyLjE2OC00Ljg0MiA0Ljg0MmE0Ljk0IDQuOTQgMCAwIDAgLjAwNi4yMzggMS40IDEuNCAwIDAgMS0xLjM5OCAxLjQ2N2gtMS44Yy0xLjczIDAtMy4xMzIgMS40MDItMy4xMzIgMy4xMzJzMS40MDIgMy4xMzIgMy4xMzIgMy4xMzJoMTAuMTlhMy4xNCAzLjE0IDAgMCAwIC4xNi0uMDA0IDEuMzkgMS4zOSAwIDAgMSAuMTMxIDBjLjA2Ny4wMDMuMTM0LjAwNC4yMDIuMDA0aDQuMDU0YTQuNTMgNC41MyAwIDEgMCAwLTkuMDYyaC0uOTc3YTEuNCAxLjQgMCAwIDEtMS4yODMtLjg0QzE3LjE2MSAzLjQ5NCAxNS40NTIgMi4zIDEzLjQ2NyAyLjN6IiBmaWxsLXJ1bGU9ImV2ZW5vZGQiLz4mI3hhOzwvc3ZnPg==;labelPosition=center;align=left;fontSize=16;fontStyle=1;spacingLeft=0;" vertex="1" parent="F12QAWH-6ixrInZiE0VT-8">
          <mxGeometry y="0.5" width="34" height="22" relative="1" as="geometry">
            <mxPoint x="15" y="-33" as="offset" />
          </mxGeometry>
        </mxCell>
        <mxCell id="F12QAWH-6ixrInZiE0VT-15" value="" style="endArrow=blockThin;html=1;strokeColor=#475E75;bendable=1;rounded=0;endFill=1;endSize=4;strokeWidth=1.5;startSize=4;startArrow=none;startFill=0;edgeStyle=orthogonalEdgeStyle;" edge="1" source="F12QAWH-6ixrInZiE0VT-21" target="F12QAWH-6ixrInZiE0VT-8" parent="1">
          <mxGeometry width="50" height="50" relative="1" as="geometry">
            <mxPoint x="450" y="475" as="sourcePoint" />
            <mxPoint x="710" y="376" as="targetPoint" />
            <Array as="points">
              <mxPoint x="670" y="434" />
              <mxPoint x="670" y="434" />
            </Array>
          </mxGeometry>
        </mxCell>
        <mxCell id="F12QAWH-6ixrInZiE0VT-20" value="" style="endArrow=none;html=1;strokeColor=#475E75;bendable=1;rounded=0;endFill=0;endSize=4;strokeWidth=1.5;startSize=4;startArrow=none;startFill=0;edgeStyle=orthogonalEdgeStyle;exitX=1.04;exitY=0.603;exitDx=0;exitDy=0;exitPerimeter=0;" edge="1" target="F12QAWH-6ixrInZiE0VT-21" parent="1" source="F12QAWH-6ixrInZiE0VT-1">
          <mxGeometry width="50" height="50" relative="1" as="geometry">
            <mxPoint x="510" y="434" as="sourcePoint" />
            <mxPoint x="700" y="435" as="targetPoint" />
            <Array as="points">
              <mxPoint x="463" y="434" />
            </Array>
          </mxGeometry>
        </mxCell>
        <mxCell id="F12QAWH-6ixrInZiE0VT-21" value="HTTPS" style="rounded=1;whiteSpace=wrap;html=1;strokeColor=#475E75;strokeWidth=1.5;arcSize=16;fillColor=#FFFFFF;perimeterSpacing=0;absoluteArcSize=1;fontColor=#475E75;fontSize=10;fontStyle=1" vertex="1" parent="1">
          <mxGeometry x="550" y="425" width="51" height="16" as="geometry" />
        </mxCell>
        <mxCell id="F12QAWH-6ixrInZiE0VT-26" value="" style="endArrow=blockThin;html=1;strokeColor=#c35500;bendable=1;rounded=0;endFill=1;endSize=4;strokeWidth=1.5;startSize=4;startArrow=none;startFill=0;exitX=0.416;exitY=1.047;exitDx=0;exitDy=0;exitPerimeter=0;" edge="1" parent="1" source="F12QAWH-6ixrInZiE0VT-2" target="F12QAWH-6ixrInZiE0VT-4">
          <mxGeometry width="50" height="50" relative="1" as="geometry">
            <mxPoint x="360" y="430" as="sourcePoint" />
            <mxPoint x="480" y="430" as="targetPoint" />
            <Array as="points" />
          </mxGeometry>
        </mxCell>
        <mxCell id="F12QAWH-6ixrInZiE0VT-30" value="" style="endArrow=none;html=1;strokeColor=#475E75;bendable=1;rounded=0;endFill=0;strokeWidth=1.5;startArrow=none;startFill=0;edgeStyle=orthogonalEdgeStyle;" edge="1" parent="1" target="F12QAWH-6ixrInZiE0VT-32">
          <mxGeometry width="50" height="50" relative="1" as="geometry">
            <mxPoint x="370" y="432.5" as="sourcePoint" />
            <mxPoint x="167" y="473.5" as="targetPoint" />
            <Array as="points">
              <mxPoint x="387" y="432.5" />
              <mxPoint x="387" y="432.5" />
            </Array>
          </mxGeometry>
        </mxCell>
        <mxCell id="F12QAWH-6ixrInZiE0VT-31" value="" style="endArrow=classic;html=1;strokeColor=#475E75;bendable=1;rounded=0;endFill=1;endSize=4;strokeWidth=1.5;startSize=4;startArrow=none;startFill=0;edgeStyle=orthogonalEdgeStyle;" edge="1" parent="1" source="F12QAWH-6ixrInZiE0VT-32">
          <mxGeometry width="50" height="50" relative="1" as="geometry">
            <mxPoint x="417" y="433.5" as="sourcePoint" />
            <mxPoint x="180" y="432.5" as="targetPoint" />
            <Array as="points">
              <mxPoint x="180" y="432.5" />
            </Array>
          </mxGeometry>
        </mxCell>
        <mxCell id="F12QAWH-6ixrInZiE0VT-32" value="HTTPS" style="rounded=1;whiteSpace=wrap;html=1;strokeColor=#475E75;strokeWidth=1.5;arcSize=16;fillColor=#FFFFFF;perimeterSpacing=0;absoluteArcSize=1;fontColor=#475E75;fontSize=10;fontStyle=1;direction=east;" vertex="1" parent="1">
          <mxGeometry x="267" y="423.5" width="51" height="16" as="geometry" />
        </mxCell>
        <mxCell id="F12QAWH-6ixrInZiE0VT-33" value="" style="endArrow=none;html=1;strokeColor=#07838F;bendable=1;rounded=0;endFill=0;endSize=4;edgeStyle=entityRelationEdgeStyle;startArrow=none;startFill=0;startSize=4;jumpStyle=none;jumpSize=0;targetPerimeterSpacing=15;dashed=1;strokeWidth=1.5;" edge="1" parent="1">
          <mxGeometry width="50" height="50" relative="1" as="geometry">
            <mxPoint x="80" y="320" as="sourcePoint" />
            <mxPoint x="800" y="320" as="targetPoint" />
            <Array as="points">
              <mxPoint x="180" y="340" />
              <mxPoint x="160" y="320" />
              <mxPoint x="170" y="310" />
            </Array>
          </mxGeometry>
        </mxCell>
        <mxCell id="F12QAWH-6ixrInZiE0VT-34" value="Https" style="text;html=1;align=left;verticalAlign=middle;resizable=0;points=[];autosize=1;strokeColor=none;fillColor=none;fontSize=14;fontStyle=1;fontColor=#5B738B;" vertex="1" parent="1">
          <mxGeometry x="140" y="330" width="60" height="30" as="geometry" />
        </mxCell>
        <mxCell id="F12QAWH-6ixrInZiE0VT-40" style="edgeStyle=orthogonalEdgeStyle;rounded=0;orthogonalLoop=1;jettySize=auto;html=1;" edge="1" parent="1" source="F12QAWH-6ixrInZiE0VT-38">
          <mxGeometry relative="1" as="geometry">
            <mxPoint x="420.99" y="320" as="targetPoint" />
          </mxGeometry>
        </mxCell>
        <mxCell id="F12QAWH-6ixrInZiE0VT-38" value="&lt;p style=&quot;line-height: 114%;&quot;&gt;&lt;font color=&quot;#5d36ff&quot; size=&quot;1&quot;&gt;&lt;b style=&quot;&quot;&gt;Solace&lt;/b&gt;&lt;/font&gt;&lt;/p&gt;" style="rounded=1;whiteSpace=wrap;html=1;arcSize=50;strokeColor=#470bed;fillColor=#f1edff;fontColor=#266f3a;strokeWidth=1.5;" vertex="1" parent="1">
          <mxGeometry x="399.995" y="352.4" width="41.99" height="16" as="geometry" />
        </mxCell>
        <mxCell id="F12QAWH-6ixrInZiE0VT-39" style="edgeStyle=orthogonalEdgeStyle;rounded=0;orthogonalLoop=1;jettySize=auto;html=1;entryX=0.439;entryY=0.019;entryDx=0;entryDy=0;entryPerimeter=0;" edge="1" parent="1" source="F12QAWH-6ixrInZiE0VT-38" target="F12QAWH-6ixrInZiE0VT-1">
          <mxGeometry relative="1" as="geometry" />
        </mxCell>
        <mxCell id="F12QAWH-6ixrInZiE0VT-41" value="" style="strokeColor=#0070F2;shadow=0;strokeWidth=2;rounded=1;absoluteArcSize=1;arcSize=20;" vertex="1" parent="1">
          <mxGeometry x="70" y="60" width="150" height="40" as="geometry" />
        </mxCell>
        <mxCell id="F12QAWH-6ixrInZiE0VT-42" value="WIAM" style="shape=image;editableCssRules=.*;part=1;verticalLabelPosition=middle;labelBackgroundColor=none;verticalAlign=middle;aspect=fixed;imageAspect=0;image=data:image/svg+xml,PHN2ZyB4bWxucz0iaHR0cDovL3d3dy53My5vcmcvMjAwMC9zdmciIHZpZXdCb3g9Ii0wLjUgLTAuNSAyNi4wODQgMjgiIGhlaWdodD0iMjgiIHdpZHRoPSIyNi4wODQiPiYjeGE7CSAgPHN0eWxlIHR5cGU9InRleHQvY3NzIj4uc3QwIHsgc3RvcC1jb2xvcjogcmdiKDM1LCAxNDksIDI1NSk7IH0gLnN0MSB7IHN0b3AtY29sb3I6IHJnYigwLCA4NywgMjEwKTsgfSA8L3N0eWxlPiYjeGE7CTxkZWZzPiYjeGE7CQk8bGluZWFyR3JhZGllbnQgZ3JhZGllbnRVbml0cz0idXNlclNwYWNlT25Vc2UiIHkyPSIyMy43OTIiIHgyPSIyMy4yNTYiIHkxPSIzLjQ3NCIgeDE9IjEuODY1IiBpZD0iQSI+JiN4YTsJCQk8c3RvcCBjbGFzcz0ic3QwIi8+JiN4YTsJCQk8c3RvcCBjbGFzcz0ic3QxIiBvZmZzZXQ9IjEiLz4mI3hhOwkJPC9saW5lYXJHcmFkaWVudD4mI3hhOwk8L2RlZnM+JiN4YTsJPHBhdGggZmlsbD0idXJsKCNBKSIgZD0iTTI0LjEwNCA4LjEwMmE0Ljk3IDQuOTcgMCAwIDEgMS4wNDIgMS41MzRjLjI5MS41NDkuNDM4IDEuMTUyLjQzOCAxLjgxdjExLjcyNWMwIDEuMjQxLS40MjEgMi4yNjUtMS4yNjIgMy4wNjgtLjgzOC44NDItMS44OCAxLjI2MS0zLjEyMSAxLjI2MUgzLjgyN2E0LjE4IDQuMTggMCAwIDEtMy4wNjgtMS4yNjFDLS4wODEgMjUuNDM2LS41IDI0LjQxMi0uNSAyMy4xNzFWMTEuNDQ0YzAtMS4zODcuNDkxLTIuNTAyIDEuNDc4LTMuMzQyTDkuNjM4LjU5NkE0LjUgNC41IDAgMCAxIDEyLjU5NC0uNSA0LjA5IDQuMDkgMCAwIDEgMTUuNDQ0LjU5NnptLTkuMzcgNy44MzZIMTAuMzV2OC43MTNoNC4zODR6bTcuNzgyLTQuNDk0YzAtLjQ3My0uMTQ3LS44NTktLjQzOC0xLjE1bC04LjY1OC03LjUwNmMtLjYyMS0uNDczLTEuMjYxLS40NzMtMS45MTggMGwtOC42NTUgNy41MDZjLS4yOTMuMjkzLS40MzguNjc3LS40MzggMS4xNTJ2MTEuNzI1YzAgLjQzOC4xMjguODAzLjM4NCAxLjA5NmExLjUzIDEuNTMgMCAwIDAgMS4wNC4zODRoMy42MTd2LTguNzEzYzAtLjgwMy4yNzQtMS40OC44MjEtMi4wMjcuNTg2LS41ODYgMS4yOC0uODc3IDIuMDgzLS44NzdoNC4zODRhMi42NiAyLjY2IDAgMCAxIDIuMDI3Ljg3N2MuNTQ5LjU0Ny44MjIgMS4yMjQuODIyIDIuMDI3djguNzEzaDMuNjE3Yy40MzggMCAuNzg0LS4xMjggMS4wNC0uMzg0LjE0NC0uMTQzLjI1Ny0uMzE0LjMzMy0uNTAzcy4xMTEtLjM5LjEwNi0uNTkzeiIvPiYjeGE7PC9zdmc+;labelPosition=right;align=left;fontStyle=1;spacingLeft=15;fontSize=16;" vertex="1" parent="F12QAWH-6ixrInZiE0VT-41">
          <mxGeometry y="0.5" width="28" height="30" relative="1" as="geometry">
            <mxPoint x="15" y="-15" as="offset" />
          </mxGeometry>
        </mxCell>
        <mxCell id="F12QAWH-6ixrInZiE0VT-43" value="" style="strokeColor=#0070F2;shadow=0;strokeWidth=2;rounded=1;absoluteArcSize=1;arcSize=20;" vertex="1" parent="1">
          <mxGeometry x="425" y="240" width="160" height="40" as="geometry" />
        </mxCell>
        <mxCell id="F12QAWH-6ixrInZiE0VT-44" value="AAD" style="shape=image;editableCssRules=.*;part=1;verticalLabelPosition=middle;labelBackgroundColor=default;verticalAlign=middle;imageAspect=0;image=data:image/svg+xml,PHN2ZyB4bWxucz0iaHR0cDovL3d3dy53My5vcmcvMjAwMC9zdmciIHZpZXdCb3g9Ii0wLjUgLTAuNSAyOCAxOC40MTIiIGhlaWdodD0iMTguNDEyIiB3aWR0aD0iMjgiPiYjeGE7CSAgPHN0eWxlIHR5cGU9InRleHQvY3NzIj4uc3QwIHsgc3RvcC1jb2xvcjogcmdiKDM1LCAxNDksIDI1NSk7IH0gLnN0MSB7IHN0b3AtY29sb3I6IHJnYigwLCA4NywgMjEwKTsgfSA8L3N0eWxlPiYjeGE7CTxkZWZzPiYjeGE7CQk8bGluZWFyR3JhZGllbnQgZ3JhZGllbnRVbml0cz0idXNlclNwYWNlT25Vc2UiIHkyPSIyMi4wMDgiIHgyPSIxNC44NjkiIHkxPSIyLjExMyIgeDE9IjIuMDM5IiBpZD0iQSI+JiN4YTsJCQk8c3RvcCBjbGFzcz0ic3QwIi8+JiN4YTsJCQk8c3RvcCBjbGFzcz0ic3QxIiBvZmZzZXQ9IjEiLz4mI3hhOwkJPC9saW5lYXJHcmFkaWVudD4mI3hhOwk8L2RlZnM+JiN4YTsJPHBhdGggZmlsbD0idXJsKCNBKSIgZD0iTTUuOTAzIDYuMDQ3QzYuNDM0IDIuMzQ1IDkuNjE5LS41IDEzLjQ2Ny0uNWMyLjgwMSAwIDUuMjQ3IDEuNTA2IDYuNTc3IDMuNzQ5aC4xMjRjNC4wNDkgMCA3LjMzMSAzLjI4MiA3LjMzMSA3LjMzMXMtMy4yODIgNy4zMzEtNy4zMzEgNy4zMzFoLTQuMDU0Yy0uMDg3IDAtLjE3My0uMDAyLS4yNTktLjAwNS0uMDc4LjAwMy0uMTU1LjAwNS0uMjMzLjAwNUg1LjQzMmMtMy4yNzYgMC01LjkzMi0yLjY1Ni01LjkzMi01LjkzMnMyLjY1Ni01LjkzMiA1LjkzMi01LjkzMnpNMTMuNDY3IDIuM2MtMi42NzQgMC00Ljg0MiAyLjE2OC00Ljg0MiA0Ljg0MmE0Ljk0IDQuOTQgMCAwIDAgLjAwNi4yMzggMS40IDEuNCAwIDAgMS0xLjM5OCAxLjQ2N2gtMS44Yy0xLjczIDAtMy4xMzIgMS40MDItMy4xMzIgMy4xMzJzMS40MDIgMy4xMzIgMy4xMzIgMy4xMzJoMTAuMTlhMy4xNCAzLjE0IDAgMCAwIC4xNi0uMDA0IDEuMzkgMS4zOSAwIDAgMSAuMTMxIDBjLjA2Ny4wMDMuMTM0LjAwNC4yMDIuMDA0aDQuMDU0YTQuNTMgNC41MyAwIDEgMCAwLTkuMDYyaC0uOTc3YTEuNCAxLjQgMCAwIDEtMS4yODMtLjg0QzE3LjE2MSAzLjQ5NCAxNS40NTIgMi4zIDEzLjQ2NyAyLjN6IiBmaWxsLXJ1bGU9ImV2ZW5vZGQiLz4mI3hhOzwvc3ZnPg==;labelPosition=right;align=left;fontSize=16;fontStyle=1;spacingLeft=15;" vertex="1" parent="F12QAWH-6ixrInZiE0VT-43">
          <mxGeometry y="0.5" width="34" height="22" relative="1" as="geometry">
            <mxPoint x="15" y="-11" as="offset" />
          </mxGeometry>
        </mxCell>
        <mxCell id="F12QAWH-6ixrInZiE0VT-46" value="" style="strokeColor=#0070F2;shadow=0;strokeWidth=2;rounded=1;absoluteArcSize=1;arcSize=20;" vertex="1" parent="1">
          <mxGeometry x="70" y="120" width="150" height="40" as="geometry" />
        </mxCell>
        <mxCell id="F12QAWH-6ixrInZiE0VT-47" value="FASC.EMP" style="shape=image;editableCssRules=.*;part=1;verticalLabelPosition=middle;labelBackgroundColor=none;verticalAlign=middle;aspect=fixed;imageAspect=0;image=data:image/svg+xml,PHN2ZyB4bWxucz0iaHR0cDovL3d3dy53My5vcmcvMjAwMC9zdmciIHZpZXdCb3g9Ii0wLjUgLTAuNSAyNi4wODQgMjgiIGhlaWdodD0iMjgiIHdpZHRoPSIyNi4wODQiPiYjeGE7CSAgPHN0eWxlIHR5cGU9InRleHQvY3NzIj4uc3QwIHsgc3RvcC1jb2xvcjogcmdiKDM1LCAxNDksIDI1NSk7IH0gLnN0MSB7IHN0b3AtY29sb3I6IHJnYigwLCA4NywgMjEwKTsgfSA8L3N0eWxlPiYjeGE7CTxkZWZzPiYjeGE7CQk8bGluZWFyR3JhZGllbnQgZ3JhZGllbnRVbml0cz0idXNlclNwYWNlT25Vc2UiIHkyPSIyMy43OTIiIHgyPSIyMy4yNTYiIHkxPSIzLjQ3NCIgeDE9IjEuODY1IiBpZD0iQSI+JiN4YTsJCQk8c3RvcCBjbGFzcz0ic3QwIi8+JiN4YTsJCQk8c3RvcCBjbGFzcz0ic3QxIiBvZmZzZXQ9IjEiLz4mI3hhOwkJPC9saW5lYXJHcmFkaWVudD4mI3hhOwk8L2RlZnM+JiN4YTsJPHBhdGggZmlsbD0idXJsKCNBKSIgZD0iTTI0LjEwNCA4LjEwMmE0Ljk3IDQuOTcgMCAwIDEgMS4wNDIgMS41MzRjLjI5MS41NDkuNDM4IDEuMTUyLjQzOCAxLjgxdjExLjcyNWMwIDEuMjQxLS40MjEgMi4yNjUtMS4yNjIgMy4wNjgtLjgzOC44NDItMS44OCAxLjI2MS0zLjEyMSAxLjI2MUgzLjgyN2E0LjE4IDQuMTggMCAwIDEtMy4wNjgtMS4yNjFDLS4wODEgMjUuNDM2LS41IDI0LjQxMi0uNSAyMy4xNzFWMTEuNDQ0YzAtMS4zODcuNDkxLTIuNTAyIDEuNDc4LTMuMzQyTDkuNjM4LjU5NkE0LjUgNC41IDAgMCAxIDEyLjU5NC0uNSA0LjA5IDQuMDkgMCAwIDEgMTUuNDQ0LjU5NnptLTkuMzcgNy44MzZIMTAuMzV2OC43MTNoNC4zODR6bTcuNzgyLTQuNDk0YzAtLjQ3My0uMTQ3LS44NTktLjQzOC0xLjE1bC04LjY1OC03LjUwNmMtLjYyMS0uNDczLTEuMjYxLS40NzMtMS45MTggMGwtOC42NTUgNy41MDZjLS4yOTMuMjkzLS40MzguNjc3LS40MzggMS4xNTJ2MTEuNzI1YzAgLjQzOC4xMjguODAzLjM4NCAxLjA5NmExLjUzIDEuNTMgMCAwIDAgMS4wNC4zODRoMy42MTd2LTguNzEzYzAtLjgwMy4yNzQtMS40OC44MjEtMi4wMjcuNTg2LS41ODYgMS4yOC0uODc3IDIuMDgzLS44NzdoNC4zODRhMi42NiAyLjY2IDAgMCAxIDIuMDI3Ljg3N2MuNTQ5LjU0Ny44MjIgMS4yMjQuODIyIDIuMDI3djguNzEzaDMuNjE3Yy40MzggMCAuNzg0LS4xMjggMS4wNC0uMzg0LjE0NC0uMTQzLjI1Ny0uMzE0LjMzMy0uNTAzcy4xMTEtLjM5LjEwNi0uNTkzeiIvPiYjeGE7PC9zdmc+;labelPosition=right;align=left;fontStyle=1;spacingLeft=15;fontSize=16;" vertex="1" parent="F12QAWH-6ixrInZiE0VT-46">
          <mxGeometry y="0.5" width="28" height="30" relative="1" as="geometry">
            <mxPoint x="15" y="-15" as="offset" />
          </mxGeometry>
        </mxCell>
        <mxCell id="F12QAWH-6ixrInZiE0VT-48" value="" style="strokeColor=#0070F2;shadow=0;strokeWidth=2;rounded=1;absoluteArcSize=1;arcSize=20;" vertex="1" parent="1">
          <mxGeometry x="70" y="180" width="150" height="40" as="geometry" />
        </mxCell>
        <mxCell id="F12QAWH-6ixrInZiE0VT-49" value="FASC" style="shape=image;editableCssRules=.*;part=1;verticalLabelPosition=middle;labelBackgroundColor=none;verticalAlign=middle;aspect=fixed;imageAspect=0;image=data:image/svg+xml,PHN2ZyB4bWxucz0iaHR0cDovL3d3dy53My5vcmcvMjAwMC9zdmciIHZpZXdCb3g9Ii0wLjUgLTAuNSAyNi4wODQgMjgiIGhlaWdodD0iMjgiIHdpZHRoPSIyNi4wODQiPiYjeGE7CSAgPHN0eWxlIHR5cGU9InRleHQvY3NzIj4uc3QwIHsgc3RvcC1jb2xvcjogcmdiKDM1LCAxNDksIDI1NSk7IH0gLnN0MSB7IHN0b3AtY29sb3I6IHJnYigwLCA4NywgMjEwKTsgfSA8L3N0eWxlPiYjeGE7CTxkZWZzPiYjeGE7CQk8bGluZWFyR3JhZGllbnQgZ3JhZGllbnRVbml0cz0idXNlclNwYWNlT25Vc2UiIHkyPSIyMy43OTIiIHgyPSIyMy4yNTYiIHkxPSIzLjQ3NCIgeDE9IjEuODY1IiBpZD0iQSI+JiN4YTsJCQk8c3RvcCBjbGFzcz0ic3QwIi8+JiN4YTsJCQk8c3RvcCBjbGFzcz0ic3QxIiBvZmZzZXQ9IjEiLz4mI3hhOwkJPC9saW5lYXJHcmFkaWVudD4mI3hhOwk8L2RlZnM+JiN4YTsJPHBhdGggZmlsbD0idXJsKCNBKSIgZD0iTTI0LjEwNCA4LjEwMmE0Ljk3IDQuOTcgMCAwIDEgMS4wNDIgMS41MzRjLjI5MS41NDkuNDM4IDEuMTUyLjQzOCAxLjgxdjExLjcyNWMwIDEuMjQxLS40MjEgMi4yNjUtMS4yNjIgMy4wNjgtLjgzOC44NDItMS44OCAxLjI2MS0zLjEyMSAxLjI2MUgzLjgyN2E0LjE4IDQuMTggMCAwIDEtMy4wNjgtMS4yNjFDLS4wODEgMjUuNDM2LS41IDI0LjQxMi0uNSAyMy4xNzFWMTEuNDQ0YzAtMS4zODcuNDkxLTIuNTAyIDEuNDc4LTMuMzQyTDkuNjM4LjU5NkE0LjUgNC41IDAgMCAxIDEyLjU5NC0uNSA0LjA5IDQuMDkgMCAwIDEgMTUuNDQ0LjU5NnptLTkuMzcgNy44MzZIMTAuMzV2OC43MTNoNC4zODR6bTcuNzgyLTQuNDk0YzAtLjQ3My0uMTQ3LS44NTktLjQzOC0xLjE1bC04LjY1OC03LjUwNmMtLjYyMS0uNDczLTEuMjYxLS40NzMtMS45MTggMGwtOC42NTUgNy41MDZjLS4yOTMuMjkzLS40MzguNjc3LS40MzggMS4xNTJ2MTEuNzI1YzAgLjQzOC4xMjguODAzLjM4NCAxLjA5NmExLjUzIDEuNTMgMCAwIDAgMS4wNC4zODRoMy42MTd2LTguNzEzYzAtLjgwMy4yNzQtMS40OC44MjEtMi4wMjcuNTg2LS41ODYgMS4yOC0uODc3IDIuMDgzLS44NzdoNC4zODRhMi42NiAyLjY2IDAgMCAxIDIuMDI3Ljg3N2MuNTQ5LjU0Ny44MjIgMS4yMjQuODIyIDIuMDI3djguNzEzaDMuNjE3Yy40MzggMCAuNzg0LS4xMjggMS4wNC0uMzg0LjE0NC0uMTQzLjI1Ny0uMzE0LjMzMy0uNTAzcy4xMTEtLjM5LjEwNi0uNTkzeiIvPiYjeGE7PC9zdmc+;labelPosition=right;align=left;fontStyle=1;spacingLeft=15;fontSize=16;" vertex="1" parent="F12QAWH-6ixrInZiE0VT-48">
          <mxGeometry y="0.5" width="28" height="30" relative="1" as="geometry">
            <mxPoint x="15" y="-15" as="offset" />
          </mxGeometry>
        </mxCell>
        <mxCell id="F12QAWH-6ixrInZiE0VT-50" value="" style="strokeColor=#0070F2;shadow=0;strokeWidth=2;rounded=1;absoluteArcSize=1;arcSize=20;" vertex="1" parent="1">
          <mxGeometry x="70" y="240" width="150" height="40" as="geometry" />
        </mxCell>
        <mxCell id="F12QAWH-6ixrInZiE0VT-51" value="RTA" style="shape=image;editableCssRules=.*;part=1;verticalLabelPosition=middle;labelBackgroundColor=none;verticalAlign=middle;aspect=fixed;imageAspect=0;image=data:image/svg+xml,PHN2ZyB4bWxucz0iaHR0cDovL3d3dy53My5vcmcvMjAwMC9zdmciIHZpZXdCb3g9Ii0wLjUgLTAuNSAyNi4wODQgMjgiIGhlaWdodD0iMjgiIHdpZHRoPSIyNi4wODQiPiYjeGE7CSAgPHN0eWxlIHR5cGU9InRleHQvY3NzIj4uc3QwIHsgc3RvcC1jb2xvcjogcmdiKDM1LCAxNDksIDI1NSk7IH0gLnN0MSB7IHN0b3AtY29sb3I6IHJnYigwLCA4NywgMjEwKTsgfSA8L3N0eWxlPiYjeGE7CTxkZWZzPiYjeGE7CQk8bGluZWFyR3JhZGllbnQgZ3JhZGllbnRVbml0cz0idXNlclNwYWNlT25Vc2UiIHkyPSIyMy43OTIiIHgyPSIyMy4yNTYiIHkxPSIzLjQ3NCIgeDE9IjEuODY1IiBpZD0iQSI+JiN4YTsJCQk8c3RvcCBjbGFzcz0ic3QwIi8+JiN4YTsJCQk8c3RvcCBjbGFzcz0ic3QxIiBvZmZzZXQ9IjEiLz4mI3hhOwkJPC9saW5lYXJHcmFkaWVudD4mI3hhOwk8L2RlZnM+JiN4YTsJPHBhdGggZmlsbD0idXJsKCNBKSIgZD0iTTI0LjEwNCA4LjEwMmE0Ljk3IDQuOTcgMCAwIDEgMS4wNDIgMS41MzRjLjI5MS41NDkuNDM4IDEuMTUyLjQzOCAxLjgxdjExLjcyNWMwIDEuMjQxLS40MjEgMi4yNjUtMS4yNjIgMy4wNjgtLjgzOC44NDItMS44OCAxLjI2MS0zLjEyMSAxLjI2MUgzLjgyN2E0LjE4IDQuMTggMCAwIDEtMy4wNjgtMS4yNjFDLS4wODEgMjUuNDM2LS41IDI0LjQxMi0uNSAyMy4xNzFWMTEuNDQ0YzAtMS4zODcuNDkxLTIuNTAyIDEuNDc4LTMuMzQyTDkuNjM4LjU5NkE0LjUgNC41IDAgMCAxIDEyLjU5NC0uNSA0LjA5IDQuMDkgMCAwIDEgMTUuNDQ0LjU5NnptLTkuMzcgNy44MzZIMTAuMzV2OC43MTNoNC4zODR6bTcuNzgyLTQuNDk0YzAtLjQ3My0uMTQ3LS44NTktLjQzOC0xLjE1bC04LjY1OC03LjUwNmMtLjYyMS0uNDczLTEuMjYxLS40NzMtMS45MTggMGwtOC42NTUgNy41MDZjLS4yOTMuMjkzLS40MzguNjc3LS40MzggMS4xNTJ2MTEuNzI1YzAgLjQzOC4xMjguODAzLjM4NCAxLjA5NmExLjUzIDEuNTMgMCAwIDAgMS4wNC4zODRoMy42MTd2LTguNzEzYzAtLjgwMy4yNzQtMS40OC44MjEtMi4wMjcuNTg2LS41ODYgMS4yOC0uODc3IDIuMDgzLS44NzdoNC4zODRhMi42NiAyLjY2IDAgMCAxIDIuMDI3Ljg3N2MuNTQ5LjU0Ny44MjIgMS4yMjQuODIyIDIuMDI3djguNzEzaDMuNjE3Yy40MzggMCAuNzg0LS4xMjggMS4wNC0uMzg0LjE0NC0uMTQzLjI1Ny0uMzE0LjMzMy0uNTAzcy4xMTEtLjM5LjEwNi0uNTkzeiIvPiYjeGE7PC9zdmc+;labelPosition=right;align=left;fontStyle=1;spacingLeft=15;fontSize=16;" vertex="1" parent="F12QAWH-6ixrInZiE0VT-50">
          <mxGeometry y="0.5" width="28" height="30" relative="1" as="geometry">
            <mxPoint x="15" y="-15" as="offset" />
          </mxGeometry>
        </mxCell>
        <mxCell id="F12QAWH-6ixrInZiE0VT-52" value="" style="strokeColor=#0070F2;shadow=0;strokeWidth=2;rounded=1;absoluteArcSize=1;arcSize=20;" vertex="1" parent="1">
          <mxGeometry x="249.99" y="60" width="150" height="40" as="geometry" />
        </mxCell>
        <mxCell id="F12QAWH-6ixrInZiE0VT-53" value="RTA.PTPM" style="shape=image;editableCssRules=.*;part=1;verticalLabelPosition=middle;labelBackgroundColor=none;verticalAlign=middle;aspect=fixed;imageAspect=0;image=data:image/svg+xml,PHN2ZyB4bWxucz0iaHR0cDovL3d3dy53My5vcmcvMjAwMC9zdmciIHZpZXdCb3g9Ii0wLjUgLTAuNSAyNi4wODQgMjgiIGhlaWdodD0iMjgiIHdpZHRoPSIyNi4wODQiPiYjeGE7CSAgPHN0eWxlIHR5cGU9InRleHQvY3NzIj4uc3QwIHsgc3RvcC1jb2xvcjogcmdiKDM1LCAxNDksIDI1NSk7IH0gLnN0MSB7IHN0b3AtY29sb3I6IHJnYigwLCA4NywgMjEwKTsgfSA8L3N0eWxlPiYjeGE7CTxkZWZzPiYjeGE7CQk8bGluZWFyR3JhZGllbnQgZ3JhZGllbnRVbml0cz0idXNlclNwYWNlT25Vc2UiIHkyPSIyMy43OTIiIHgyPSIyMy4yNTYiIHkxPSIzLjQ3NCIgeDE9IjEuODY1IiBpZD0iQSI+JiN4YTsJCQk8c3RvcCBjbGFzcz0ic3QwIi8+JiN4YTsJCQk8c3RvcCBjbGFzcz0ic3QxIiBvZmZzZXQ9IjEiLz4mI3hhOwkJPC9saW5lYXJHcmFkaWVudD4mI3hhOwk8L2RlZnM+JiN4YTsJPHBhdGggZmlsbD0idXJsKCNBKSIgZD0iTTI0LjEwNCA4LjEwMmE0Ljk3IDQuOTcgMCAwIDEgMS4wNDIgMS41MzRjLjI5MS41NDkuNDM4IDEuMTUyLjQzOCAxLjgxdjExLjcyNWMwIDEuMjQxLS40MjEgMi4yNjUtMS4yNjIgMy4wNjgtLjgzOC44NDItMS44OCAxLjI2MS0zLjEyMSAxLjI2MUgzLjgyN2E0LjE4IDQuMTggMCAwIDEtMy4wNjgtMS4yNjFDLS4wODEgMjUuNDM2LS41IDI0LjQxMi0uNSAyMy4xNzFWMTEuNDQ0YzAtMS4zODcuNDkxLTIuNTAyIDEuNDc4LTMuMzQyTDkuNjM4LjU5NkE0LjUgNC41IDAgMCAxIDEyLjU5NC0uNSA0LjA5IDQuMDkgMCAwIDEgMTUuNDQ0LjU5NnptLTkuMzcgNy44MzZIMTAuMzV2OC43MTNoNC4zODR6bTcuNzgyLTQuNDk0YzAtLjQ3My0uMTQ3LS44NTktLjQzOC0xLjE1bC04LjY1OC03LjUwNmMtLjYyMS0uNDczLTEuMjYxLS40NzMtMS45MTggMGwtOC42NTUgNy41MDZjLS4yOTMuMjkzLS40MzguNjc3LS40MzggMS4xNTJ2MTEuNzI1YzAgLjQzOC4xMjguODAzLjM4NCAxLjA5NmExLjUzIDEuNTMgMCAwIDAgMS4wNC4zODRoMy42MTd2LTguNzEzYzAtLjgwMy4yNzQtMS40OC44MjEtMi4wMjcuNTg2LS41ODYgMS4yOC0uODc3IDIuMDgzLS44NzdoNC4zODRhMi42NiAyLjY2IDAgMCAxIDIuMDI3Ljg3N2MuNTQ5LjU0Ny44MjIgMS4yMjQuODIyIDIuMDI3djguNzEzaDMuNjE3Yy40MzggMCAuNzg0LS4xMjggMS4wNC0uMzg0LjE0NC0uMTQzLjI1Ny0uMzE0LjMzMy0uNTAzcy4xMTEtLjM5LjEwNi0uNTkzeiIvPiYjeGE7PC9zdmc+;labelPosition=right;align=left;fontStyle=1;spacingLeft=15;fontSize=16;" vertex="1" parent="F12QAWH-6ixrInZiE0VT-52">
          <mxGeometry y="0.5" width="28" height="30" relative="1" as="geometry">
            <mxPoint x="15" y="-15" as="offset" />
          </mxGeometry>
        </mxCell>
        <mxCell id="F12QAWH-6ixrInZiE0VT-54" value="" style="strokeColor=#0070F2;shadow=0;strokeWidth=2;rounded=1;absoluteArcSize=1;arcSize=20;" vertex="1" parent="1">
          <mxGeometry x="249.99" y="180" width="150" height="40" as="geometry" />
        </mxCell>
        <mxCell id="F12QAWH-6ixrInZiE0VT-55" value="SMIS" style="shape=image;editableCssRules=.*;part=1;verticalLabelPosition=middle;labelBackgroundColor=none;verticalAlign=middle;aspect=fixed;imageAspect=0;image=data:image/svg+xml,PHN2ZyB4bWxucz0iaHR0cDovL3d3dy53My5vcmcvMjAwMC9zdmciIHZpZXdCb3g9Ii0wLjUgLTAuNSAyNi4wODQgMjgiIGhlaWdodD0iMjgiIHdpZHRoPSIyNi4wODQiPiYjeGE7CSAgPHN0eWxlIHR5cGU9InRleHQvY3NzIj4uc3QwIHsgc3RvcC1jb2xvcjogcmdiKDM1LCAxNDksIDI1NSk7IH0gLnN0MSB7IHN0b3AtY29sb3I6IHJnYigwLCA4NywgMjEwKTsgfSA8L3N0eWxlPiYjeGE7CTxkZWZzPiYjeGE7CQk8bGluZWFyR3JhZGllbnQgZ3JhZGllbnRVbml0cz0idXNlclNwYWNlT25Vc2UiIHkyPSIyMy43OTIiIHgyPSIyMy4yNTYiIHkxPSIzLjQ3NCIgeDE9IjEuODY1IiBpZD0iQSI+JiN4YTsJCQk8c3RvcCBjbGFzcz0ic3QwIi8+JiN4YTsJCQk8c3RvcCBjbGFzcz0ic3QxIiBvZmZzZXQ9IjEiLz4mI3hhOwkJPC9saW5lYXJHcmFkaWVudD4mI3hhOwk8L2RlZnM+JiN4YTsJPHBhdGggZmlsbD0idXJsKCNBKSIgZD0iTTI0LjEwNCA4LjEwMmE0Ljk3IDQuOTcgMCAwIDEgMS4wNDIgMS41MzRjLjI5MS41NDkuNDM4IDEuMTUyLjQzOCAxLjgxdjExLjcyNWMwIDEuMjQxLS40MjEgMi4yNjUtMS4yNjIgMy4wNjgtLjgzOC44NDItMS44OCAxLjI2MS0zLjEyMSAxLjI2MUgzLjgyN2E0LjE4IDQuMTggMCAwIDEtMy4wNjgtMS4yNjFDLS4wODEgMjUuNDM2LS41IDI0LjQxMi0uNSAyMy4xNzFWMTEuNDQ0YzAtMS4zODcuNDkxLTIuNTAyIDEuNDc4LTMuMzQyTDkuNjM4LjU5NkE0LjUgNC41IDAgMCAxIDEyLjU5NC0uNSA0LjA5IDQuMDkgMCAwIDEgMTUuNDQ0LjU5NnptLTkuMzcgNy44MzZIMTAuMzV2OC43MTNoNC4zODR6bTcuNzgyLTQuNDk0YzAtLjQ3My0uMTQ3LS44NTktLjQzOC0xLjE1bC04LjY1OC03LjUwNmMtLjYyMS0uNDczLTEuMjYxLS40NzMtMS45MTggMGwtOC42NTUgNy41MDZjLS4yOTMuMjkzLS40MzguNjc3LS40MzggMS4xNTJ2MTEuNzI1YzAgLjQzOC4xMjguODAzLjM4NCAxLjA5NmExLjUzIDEuNTMgMCAwIDAgMS4wNC4zODRoMy42MTd2LTguNzEzYzAtLjgwMy4yNzQtMS40OC44MjEtMi4wMjcuNTg2LS41ODYgMS4yOC0uODc3IDIuMDgzLS44NzdoNC4zODRhMi42NiAyLjY2IDAgMCAxIDIuMDI3Ljg3N2MuNTQ5LjU0Ny44MjIgMS4yMjQuODIyIDIuMDI3djguNzEzaDMuNjE3Yy40MzggMCAuNzg0LS4xMjggMS4wNC0uMzg0LjE0NC0uMTQzLjI1Ny0uMzE0LjMzMy0uNTAzcy4xMTEtLjM5LjEwNi0uNTkzeiIvPiYjeGE7PC9zdmc+;labelPosition=right;align=left;fontStyle=1;spacingLeft=15;fontSize=16;" vertex="1" parent="F12QAWH-6ixrInZiE0VT-54">
          <mxGeometry y="0.5" width="28" height="30" relative="1" as="geometry">
            <mxPoint x="15" y="-15" as="offset" />
          </mxGeometry>
        </mxCell>
        <mxCell id="F12QAWH-6ixrInZiE0VT-56" value="" style="strokeColor=#0070F2;shadow=0;strokeWidth=2;rounded=1;absoluteArcSize=1;arcSize=20;" vertex="1" parent="1">
          <mxGeometry x="249.99" y="120" width="150" height="40" as="geometry" />
        </mxCell>
        <mxCell id="F12QAWH-6ixrInZiE0VT-57" value="MA.JCNT" style="shape=image;editableCssRules=.*;part=1;verticalLabelPosition=middle;labelBackgroundColor=none;verticalAlign=middle;aspect=fixed;imageAspect=0;image=data:image/svg+xml,PHN2ZyB4bWxucz0iaHR0cDovL3d3dy53My5vcmcvMjAwMC9zdmciIHZpZXdCb3g9Ii0wLjUgLTAuNSAyNi4wODQgMjgiIGhlaWdodD0iMjgiIHdpZHRoPSIyNi4wODQiPiYjeGE7CSAgPHN0eWxlIHR5cGU9InRleHQvY3NzIj4uc3QwIHsgc3RvcC1jb2xvcjogcmdiKDM1LCAxNDksIDI1NSk7IH0gLnN0MSB7IHN0b3AtY29sb3I6IHJnYigwLCA4NywgMjEwKTsgfSA8L3N0eWxlPiYjeGE7CTxkZWZzPiYjeGE7CQk8bGluZWFyR3JhZGllbnQgZ3JhZGllbnRVbml0cz0idXNlclNwYWNlT25Vc2UiIHkyPSIyMy43OTIiIHgyPSIyMy4yNTYiIHkxPSIzLjQ3NCIgeDE9IjEuODY1IiBpZD0iQSI+JiN4YTsJCQk8c3RvcCBjbGFzcz0ic3QwIi8+JiN4YTsJCQk8c3RvcCBjbGFzcz0ic3QxIiBvZmZzZXQ9IjEiLz4mI3hhOwkJPC9saW5lYXJHcmFkaWVudD4mI3hhOwk8L2RlZnM+JiN4YTsJPHBhdGggZmlsbD0idXJsKCNBKSIgZD0iTTI0LjEwNCA4LjEwMmE0Ljk3IDQuOTcgMCAwIDEgMS4wNDIgMS41MzRjLjI5MS41NDkuNDM4IDEuMTUyLjQzOCAxLjgxdjExLjcyNWMwIDEuMjQxLS40MjEgMi4yNjUtMS4yNjIgMy4wNjgtLjgzOC44NDItMS44OCAxLjI2MS0zLjEyMSAxLjI2MUgzLjgyN2E0LjE4IDQuMTggMCAwIDEtMy4wNjgtMS4yNjFDLS4wODEgMjUuNDM2LS41IDI0LjQxMi0uNSAyMy4xNzFWMTEuNDQ0YzAtMS4zODcuNDkxLTIuNTAyIDEuNDc4LTMuMzQyTDkuNjM4LjU5NkE0LjUgNC41IDAgMCAxIDEyLjU5NC0uNSA0LjA5IDQuMDkgMCAwIDEgMTUuNDQ0LjU5NnptLTkuMzcgNy44MzZIMTAuMzV2OC43MTNoNC4zODR6bTcuNzgyLTQuNDk0YzAtLjQ3My0uMTQ3LS44NTktLjQzOC0xLjE1bC04LjY1OC03LjUwNmMtLjYyMS0uNDczLTEuMjYxLS40NzMtMS45MTggMGwtOC42NTUgNy41MDZjLS4yOTMuMjkzLS40MzguNjc3LS40MzggMS4xNTJ2MTEuNzI1YzAgLjQzOC4xMjguODAzLjM4NCAxLjA5NmExLjUzIDEuNTMgMCAwIDAgMS4wNC4zODRoMy42MTd2LTguNzEzYzAtLjgwMy4yNzQtMS40OC44MjEtMi4wMjcuNTg2LS41ODYgMS4yOC0uODc3IDIuMDgzLS44NzdoNC4zODRhMi42NiAyLjY2IDAgMCAxIDIuMDI3Ljg3N2MuNTQ5LjU0Ny44MjIgMS4yMjQuODIyIDIuMDI3djguNzEzaDMuNjE3Yy40MzggMCAuNzg0LS4xMjggMS4wNC0uMzg0LjE0NC0uMTQzLjI1Ny0uMzE0LjMzMy0uNTAzcy4xMTEtLjM5LjEwNi0uNTkzeiIvPiYjeGE7PC9zdmc+;labelPosition=right;align=left;fontStyle=1;spacingLeft=15;fontSize=16;" vertex="1" parent="F12QAWH-6ixrInZiE0VT-56">
          <mxGeometry y="0.5" width="28" height="30" relative="1" as="geometry">
            <mxPoint x="15" y="-15" as="offset" />
          </mxGeometry>
        </mxCell>
        <mxCell id="F12QAWH-6ixrInZiE0VT-58" value="" style="strokeColor=#0070F2;shadow=0;strokeWidth=2;rounded=1;absoluteArcSize=1;arcSize=20;" vertex="1" parent="1">
          <mxGeometry x="249.99" y="240" width="150" height="40" as="geometry" />
        </mxCell>
        <mxCell id="F12QAWH-6ixrInZiE0VT-59" value="HSBC" style="shape=image;editableCssRules=.*;part=1;verticalLabelPosition=middle;labelBackgroundColor=none;verticalAlign=middle;aspect=fixed;imageAspect=0;image=data:image/svg+xml,PHN2ZyB4bWxucz0iaHR0cDovL3d3dy53My5vcmcvMjAwMC9zdmciIHZpZXdCb3g9Ii0wLjUgLTAuNSAyNi4wODQgMjgiIGhlaWdodD0iMjgiIHdpZHRoPSIyNi4wODQiPiYjeGE7CSAgPHN0eWxlIHR5cGU9InRleHQvY3NzIj4uc3QwIHsgc3RvcC1jb2xvcjogcmdiKDM1LCAxNDksIDI1NSk7IH0gLnN0MSB7IHN0b3AtY29sb3I6IHJnYigwLCA4NywgMjEwKTsgfSA8L3N0eWxlPiYjeGE7CTxkZWZzPiYjeGE7CQk8bGluZWFyR3JhZGllbnQgZ3JhZGllbnRVbml0cz0idXNlclNwYWNlT25Vc2UiIHkyPSIyMy43OTIiIHgyPSIyMy4yNTYiIHkxPSIzLjQ3NCIgeDE9IjEuODY1IiBpZD0iQSI+JiN4YTsJCQk8c3RvcCBjbGFzcz0ic3QwIi8+JiN4YTsJCQk8c3RvcCBjbGFzcz0ic3QxIiBvZmZzZXQ9IjEiLz4mI3hhOwkJPC9saW5lYXJHcmFkaWVudD4mI3hhOwk8L2RlZnM+JiN4YTsJPHBhdGggZmlsbD0idXJsKCNBKSIgZD0iTTI0LjEwNCA4LjEwMmE0Ljk3IDQuOTcgMCAwIDEgMS4wNDIgMS41MzRjLjI5MS41NDkuNDM4IDEuMTUyLjQzOCAxLjgxdjExLjcyNWMwIDEuMjQxLS40MjEgMi4yNjUtMS4yNjIgMy4wNjgtLjgzOC44NDItMS44OCAxLjI2MS0zLjEyMSAxLjI2MUgzLjgyN2E0LjE4IDQuMTggMCAwIDEtMy4wNjgtMS4yNjFDLS4wODEgMjUuNDM2LS41IDI0LjQxMi0uNSAyMy4xNzFWMTEuNDQ0YzAtMS4zODcuNDkxLTIuNTAyIDEuNDc4LTMuMzQyTDkuNjM4LjU5NkE0LjUgNC41IDAgMCAxIDEyLjU5NC0uNSA0LjA5IDQuMDkgMCAwIDEgMTUuNDQ0LjU5NnptLTkuMzcgNy44MzZIMTAuMzV2OC43MTNoNC4zODR6bTcuNzgyLTQuNDk0YzAtLjQ3My0uMTQ3LS44NTktLjQzOC0xLjE1bC04LjY1OC03LjUwNmMtLjYyMS0uNDczLTEuMjYxLS40NzMtMS45MTggMGwtOC42NTUgNy41MDZjLS4yOTMuMjkzLS40MzguNjc3LS40MzggMS4xNTJ2MTEuNzI1YzAgLjQzOC4xMjguODAzLjM4NCAxLjA5NmExLjUzIDEuNTMgMCAwIDAgMS4wNC4zODRoMy42MTd2LTguNzEzYzAtLjgwMy4yNzQtMS40OC44MjEtMi4wMjcuNTg2LS41ODYgMS4yOC0uODc3IDIuMDgzLS44NzdoNC4zODRhMi42NiAyLjY2IDAgMCAxIDIuMDI3Ljg3N2MuNTQ5LjU0Ny44MjIgMS4yMjQuODIyIDIuMDI3djguNzEzaDMuNjE3Yy40MzggMCAuNzg0LS4xMjggMS4wNC0uMzg0LjE0NC0uMTQzLjI1Ny0uMzE0LjMzMy0uNTAzcy4xMTEtLjM5LjEwNi0uNTkzeiIvPiYjeGE7PC9zdmc+;labelPosition=right;align=left;fontStyle=1;spacingLeft=15;fontSize=16;" vertex="1" parent="F12QAWH-6ixrInZiE0VT-58">
          <mxGeometry y="0.5" width="28" height="30" relative="1" as="geometry">
            <mxPoint x="15" y="-15" as="offset" />
          </mxGeometry>
        </mxCell>
        <mxCell id="F12QAWH-6ixrInZiE0VT-60" value="" style="strokeColor=#0070F2;shadow=0;strokeWidth=2;rounded=1;absoluteArcSize=1;arcSize=20;" vertex="1" parent="1">
          <mxGeometry x="425" y="60" width="150" height="40" as="geometry" />
        </mxCell>
        <mxCell id="F12QAWH-6ixrInZiE0VT-61" value="CRM" style="shape=image;editableCssRules=.*;part=1;verticalLabelPosition=middle;labelBackgroundColor=none;verticalAlign=middle;aspect=fixed;imageAspect=0;image=data:image/svg+xml,PHN2ZyB4bWxucz0iaHR0cDovL3d3dy53My5vcmcvMjAwMC9zdmciIHZpZXdCb3g9Ii0wLjUgLTAuNSAyNi4wODQgMjgiIGhlaWdodD0iMjgiIHdpZHRoPSIyNi4wODQiPiYjeGE7CSAgPHN0eWxlIHR5cGU9InRleHQvY3NzIj4uc3QwIHsgc3RvcC1jb2xvcjogcmdiKDM1LCAxNDksIDI1NSk7IH0gLnN0MSB7IHN0b3AtY29sb3I6IHJnYigwLCA4NywgMjEwKTsgfSA8L3N0eWxlPiYjeGE7CTxkZWZzPiYjeGE7CQk8bGluZWFyR3JhZGllbnQgZ3JhZGllbnRVbml0cz0idXNlclNwYWNlT25Vc2UiIHkyPSIyMy43OTIiIHgyPSIyMy4yNTYiIHkxPSIzLjQ3NCIgeDE9IjEuODY1IiBpZD0iQSI+JiN4YTsJCQk8c3RvcCBjbGFzcz0ic3QwIi8+JiN4YTsJCQk8c3RvcCBjbGFzcz0ic3QxIiBvZmZzZXQ9IjEiLz4mI3hhOwkJPC9saW5lYXJHcmFkaWVudD4mI3hhOwk8L2RlZnM+JiN4YTsJPHBhdGggZmlsbD0idXJsKCNBKSIgZD0iTTI0LjEwNCA4LjEwMmE0Ljk3IDQuOTcgMCAwIDEgMS4wNDIgMS41MzRjLjI5MS41NDkuNDM4IDEuMTUyLjQzOCAxLjgxdjExLjcyNWMwIDEuMjQxLS40MjEgMi4yNjUtMS4yNjIgMy4wNjgtLjgzOC44NDItMS44OCAxLjI2MS0zLjEyMSAxLjI2MUgzLjgyN2E0LjE4IDQuMTggMCAwIDEtMy4wNjgtMS4yNjFDLS4wODEgMjUuNDM2LS41IDI0LjQxMi0uNSAyMy4xNzFWMTEuNDQ0YzAtMS4zODcuNDkxLTIuNTAyIDEuNDc4LTMuMzQyTDkuNjM4LjU5NkE0LjUgNC41IDAgMCAxIDEyLjU5NC0uNSA0LjA5IDQuMDkgMCAwIDEgMTUuNDQ0LjU5NnptLTkuMzcgNy44MzZIMTAuMzV2OC43MTNoNC4zODR6bTcuNzgyLTQuNDk0YzAtLjQ3My0uMTQ3LS44NTktLjQzOC0xLjE1bC04LjY1OC03LjUwNmMtLjYyMS0uNDczLTEuMjYxLS40NzMtMS45MTggMGwtOC42NTUgNy41MDZjLS4yOTMuMjkzLS40MzguNjc3LS40MzggMS4xNTJ2MTEuNzI1YzAgLjQzOC4xMjguODAzLjM4NCAxLjA5NmExLjUzIDEuNTMgMCAwIDAgMS4wNC4zODRoMy42MTd2LTguNzEzYzAtLjgwMy4yNzQtMS40OC44MjEtMi4wMjcuNTg2LS41ODYgMS4yOC0uODc3IDIuMDgzLS44NzdoNC4zODRhMi42NiAyLjY2IDAgMCAxIDIuMDI3Ljg3N2MuNTQ5LjU0Ny44MjIgMS4yMjQuODIyIDIuMDI3djguNzEzaDMuNjE3Yy40MzggMCAuNzg0LS4xMjggMS4wNC0uMzg0LjE0NC0uMTQzLjI1Ny0uMzE0LjMzMy0uNTAzcy4xMTEtLjM5LjEwNi0uNTkzeiIvPiYjeGE7PC9zdmc+;labelPosition=right;align=left;fontStyle=1;spacingLeft=15;fontSize=16;" vertex="1" parent="F12QAWH-6ixrInZiE0VT-60">
          <mxGeometry y="0.5" width="28" height="30" relative="1" as="geometry">
            <mxPoint x="15" y="-15" as="offset" />
          </mxGeometry>
        </mxCell>
        <mxCell id="F12QAWH-6ixrInZiE0VT-62" value="" style="strokeColor=#0070F2;shadow=0;strokeWidth=2;rounded=1;absoluteArcSize=1;arcSize=20;" vertex="1" parent="1">
          <mxGeometry x="425" y="180" width="160" height="40" as="geometry" />
        </mxCell>
        <mxCell id="F12QAWH-6ixrInZiE0VT-63" value="Achiever" style="shape=image;editableCssRules=.*;part=1;verticalLabelPosition=middle;labelBackgroundColor=default;verticalAlign=middle;imageAspect=0;image=data:image/svg+xml,PHN2ZyB4bWxucz0iaHR0cDovL3d3dy53My5vcmcvMjAwMC9zdmciIHZpZXdCb3g9Ii0wLjUgLTAuNSAyOCAxOC40MTIiIGhlaWdodD0iMTguNDEyIiB3aWR0aD0iMjgiPiYjeGE7CSAgPHN0eWxlIHR5cGU9InRleHQvY3NzIj4uc3QwIHsgc3RvcC1jb2xvcjogcmdiKDM1LCAxNDksIDI1NSk7IH0gLnN0MSB7IHN0b3AtY29sb3I6IHJnYigwLCA4NywgMjEwKTsgfSA8L3N0eWxlPiYjeGE7CTxkZWZzPiYjeGE7CQk8bGluZWFyR3JhZGllbnQgZ3JhZGllbnRVbml0cz0idXNlclNwYWNlT25Vc2UiIHkyPSIyMi4wMDgiIHgyPSIxNC44NjkiIHkxPSIyLjExMyIgeDE9IjIuMDM5IiBpZD0iQSI+JiN4YTsJCQk8c3RvcCBjbGFzcz0ic3QwIi8+JiN4YTsJCQk8c3RvcCBjbGFzcz0ic3QxIiBvZmZzZXQ9IjEiLz4mI3hhOwkJPC9saW5lYXJHcmFkaWVudD4mI3hhOwk8L2RlZnM+JiN4YTsJPHBhdGggZmlsbD0idXJsKCNBKSIgZD0iTTUuOTAzIDYuMDQ3QzYuNDM0IDIuMzQ1IDkuNjE5LS41IDEzLjQ2Ny0uNWMyLjgwMSAwIDUuMjQ3IDEuNTA2IDYuNTc3IDMuNzQ5aC4xMjRjNC4wNDkgMCA3LjMzMSAzLjI4MiA3LjMzMSA3LjMzMXMtMy4yODIgNy4zMzEtNy4zMzEgNy4zMzFoLTQuMDU0Yy0uMDg3IDAtLjE3My0uMDAyLS4yNTktLjAwNS0uMDc4LjAwMy0uMTU1LjAwNS0uMjMzLjAwNUg1LjQzMmMtMy4yNzYgMC01LjkzMi0yLjY1Ni01LjkzMi01LjkzMnMyLjY1Ni01LjkzMiA1LjkzMi01LjkzMnpNMTMuNDY3IDIuM2MtMi42NzQgMC00Ljg0MiAyLjE2OC00Ljg0MiA0Ljg0MmE0Ljk0IDQuOTQgMCAwIDAgLjAwNi4yMzggMS40IDEuNCAwIDAgMS0xLjM5OCAxLjQ2N2gtMS44Yy0xLjczIDAtMy4xMzIgMS40MDItMy4xMzIgMy4xMzJzMS40MDIgMy4xMzIgMy4xMzIgMy4xMzJoMTAuMTlhMy4xNCAzLjE0IDAgMCAwIC4xNi0uMDA0IDEuMzkgMS4zOSAwIDAgMSAuMTMxIDBjLjA2Ny4wMDMuMTM0LjAwNC4yMDIuMDA0aDQuMDU0YTQuNTMgNC41MyAwIDEgMCAwLTkuMDYyaC0uOTc3YTEuNCAxLjQgMCAwIDEtMS4yODMtLjg0QzE3LjE2MSAzLjQ5NCAxNS40NTIgMi4zIDEzLjQ2NyAyLjN6IiBmaWxsLXJ1bGU9ImV2ZW5vZGQiLz4mI3hhOzwvc3ZnPg==;labelPosition=right;align=left;fontSize=16;fontStyle=1;spacingLeft=15;" vertex="1" parent="F12QAWH-6ixrInZiE0VT-62">
          <mxGeometry y="0.5" width="34" height="22" relative="1" as="geometry">
            <mxPoint x="15" y="-11" as="offset" />
          </mxGeometry>
        </mxCell>
        <mxCell id="F12QAWH-6ixrInZiE0VT-64" value="" style="strokeColor=#0070F2;shadow=0;strokeWidth=2;rounded=1;absoluteArcSize=1;arcSize=20;" vertex="1" parent="1">
          <mxGeometry x="425" y="120" width="150" height="40" as="geometry" />
        </mxCell>
        <mxCell id="F12QAWH-6ixrInZiE0VT-65" value="OAS" style="shape=image;editableCssRules=.*;part=1;verticalLabelPosition=middle;labelBackgroundColor=none;verticalAlign=middle;aspect=fixed;imageAspect=0;image=data:image/svg+xml,PHN2ZyB4bWxucz0iaHR0cDovL3d3dy53My5vcmcvMjAwMC9zdmciIHZpZXdCb3g9Ii0wLjUgLTAuNSAyNi4wODQgMjgiIGhlaWdodD0iMjgiIHdpZHRoPSIyNi4wODQiPiYjeGE7CSAgPHN0eWxlIHR5cGU9InRleHQvY3NzIj4uc3QwIHsgc3RvcC1jb2xvcjogcmdiKDM1LCAxNDksIDI1NSk7IH0gLnN0MSB7IHN0b3AtY29sb3I6IHJnYigwLCA4NywgMjEwKTsgfSA8L3N0eWxlPiYjeGE7CTxkZWZzPiYjeGE7CQk8bGluZWFyR3JhZGllbnQgZ3JhZGllbnRVbml0cz0idXNlclNwYWNlT25Vc2UiIHkyPSIyMy43OTIiIHgyPSIyMy4yNTYiIHkxPSIzLjQ3NCIgeDE9IjEuODY1IiBpZD0iQSI+JiN4YTsJCQk8c3RvcCBjbGFzcz0ic3QwIi8+JiN4YTsJCQk8c3RvcCBjbGFzcz0ic3QxIiBvZmZzZXQ9IjEiLz4mI3hhOwkJPC9saW5lYXJHcmFkaWVudD4mI3hhOwk8L2RlZnM+JiN4YTsJPHBhdGggZmlsbD0idXJsKCNBKSIgZD0iTTI0LjEwNCA4LjEwMmE0Ljk3IDQuOTcgMCAwIDEgMS4wNDIgMS41MzRjLjI5MS41NDkuNDM4IDEuMTUyLjQzOCAxLjgxdjExLjcyNWMwIDEuMjQxLS40MjEgMi4yNjUtMS4yNjIgMy4wNjgtLjgzOC44NDItMS44OCAxLjI2MS0zLjEyMSAxLjI2MUgzLjgyN2E0LjE4IDQuMTggMCAwIDEtMy4wNjgtMS4yNjFDLS4wODEgMjUuNDM2LS41IDI0LjQxMi0uNSAyMy4xNzFWMTEuNDQ0YzAtMS4zODcuNDkxLTIuNTAyIDEuNDc4LTMuMzQyTDkuNjM4LjU5NkE0LjUgNC41IDAgMCAxIDEyLjU5NC0uNSA0LjA5IDQuMDkgMCAwIDEgMTUuNDQ0LjU5NnptLTkuMzcgNy44MzZIMTAuMzV2OC43MTNoNC4zODR6bTcuNzgyLTQuNDk0YzAtLjQ3My0uMTQ3LS44NTktLjQzOC0xLjE1bC04LjY1OC03LjUwNmMtLjYyMS0uNDczLTEuMjYxLS40NzMtMS45MTggMGwtOC42NTUgNy41MDZjLS4yOTMuMjkzLS40MzguNjc3LS40MzggMS4xNTJ2MTEuNzI1YzAgLjQzOC4xMjguODAzLjM4NCAxLjA5NmExLjUzIDEuNTMgMCAwIDAgMS4wNC4zODRoMy42MTd2LTguNzEzYzAtLjgwMy4yNzQtMS40OC44MjEtMi4wMjcuNTg2LS41ODYgMS4yOC0uODc3IDIuMDgzLS44NzdoNC4zODRhMi42NiAyLjY2IDAgMCAxIDIuMDI3Ljg3N2MuNTQ5LjU0Ny44MjIgMS4yMjQuODIyIDIuMDI3djguNzEzaDMuNjE3Yy40MzggMCAuNzg0LS4xMjggMS4wNC0uMzg0LjE0NC0uMTQzLjI1Ny0uMzE0LjMzMy0uNTAzcy4xMTEtLjM5LjEwNi0uNTkzeiIvPiYjeGE7PC9zdmc+;labelPosition=right;align=left;fontStyle=1;spacingLeft=15;fontSize=16;" vertex="1" parent="F12QAWH-6ixrInZiE0VT-64">
          <mxGeometry y="0.5" width="28" height="30" relative="1" as="geometry">
            <mxPoint x="15" y="-15" as="offset" />
          </mxGeometry>
        </mxCell>
        <mxCell id="F12QAWH-6ixrInZiE0VT-66" value="" style="strokeColor=#0070F2;shadow=0;strokeWidth=2;rounded=1;absoluteArcSize=1;arcSize=20;" vertex="1" parent="1">
          <mxGeometry x="601" y="60" width="150" height="40" as="geometry" />
        </mxCell>
        <mxCell id="F12QAWH-6ixrInZiE0VT-67" value="CPAS" style="shape=image;editableCssRules=.*;part=1;verticalLabelPosition=middle;labelBackgroundColor=none;verticalAlign=middle;aspect=fixed;imageAspect=0;image=data:image/svg+xml,PHN2ZyB4bWxucz0iaHR0cDovL3d3dy53My5vcmcvMjAwMC9zdmciIHZpZXdCb3g9Ii0wLjUgLTAuNSAyNi4wODQgMjgiIGhlaWdodD0iMjgiIHdpZHRoPSIyNi4wODQiPiYjeGE7CSAgPHN0eWxlIHR5cGU9InRleHQvY3NzIj4uc3QwIHsgc3RvcC1jb2xvcjogcmdiKDM1LCAxNDksIDI1NSk7IH0gLnN0MSB7IHN0b3AtY29sb3I6IHJnYigwLCA4NywgMjEwKTsgfSA8L3N0eWxlPiYjeGE7CTxkZWZzPiYjeGE7CQk8bGluZWFyR3JhZGllbnQgZ3JhZGllbnRVbml0cz0idXNlclNwYWNlT25Vc2UiIHkyPSIyMy43OTIiIHgyPSIyMy4yNTYiIHkxPSIzLjQ3NCIgeDE9IjEuODY1IiBpZD0iQSI+JiN4YTsJCQk8c3RvcCBjbGFzcz0ic3QwIi8+JiN4YTsJCQk8c3RvcCBjbGFzcz0ic3QxIiBvZmZzZXQ9IjEiLz4mI3hhOwkJPC9saW5lYXJHcmFkaWVudD4mI3hhOwk8L2RlZnM+JiN4YTsJPHBhdGggZmlsbD0idXJsKCNBKSIgZD0iTTI0LjEwNCA4LjEwMmE0Ljk3IDQuOTcgMCAwIDEgMS4wNDIgMS41MzRjLjI5MS41NDkuNDM4IDEuMTUyLjQzOCAxLjgxdjExLjcyNWMwIDEuMjQxLS40MjEgMi4yNjUtMS4yNjIgMy4wNjgtLjgzOC44NDItMS44OCAxLjI2MS0zLjEyMSAxLjI2MUgzLjgyN2E0LjE4IDQuMTggMCAwIDEtMy4wNjgtMS4yNjFDLS4wODEgMjUuNDM2LS41IDI0LjQxMi0uNSAyMy4xNzFWMTEuNDQ0YzAtMS4zODcuNDkxLTIuNTAyIDEuNDc4LTMuMzQyTDkuNjM4LjU5NkE0LjUgNC41IDAgMCAxIDEyLjU5NC0uNSA0LjA5IDQuMDkgMCAwIDEgMTUuNDQ0LjU5NnptLTkuMzcgNy44MzZIMTAuMzV2OC43MTNoNC4zODR6bTcuNzgyLTQuNDk0YzAtLjQ3My0uMTQ3LS44NTktLjQzOC0xLjE1bC04LjY1OC03LjUwNmMtLjYyMS0uNDczLTEuMjYxLS40NzMtMS45MTggMGwtOC42NTUgNy41MDZjLS4yOTMuMjkzLS40MzguNjc3LS40MzggMS4xNTJ2MTEuNzI1YzAgLjQzOC4xMjguODAzLjM4NCAxLjA5NmExLjUzIDEuNTMgMCAwIDAgMS4wNC4zODRoMy42MTd2LTguNzEzYzAtLjgwMy4yNzQtMS40OC44MjEtMi4wMjcuNTg2LS41ODYgMS4yOC0uODc3IDIuMDgzLS44NzdoNC4zODRhMi42NiAyLjY2IDAgMCAxIDIuMDI3Ljg3N2MuNTQ5LjU0Ny44MjIgMS4yMjQuODIyIDIuMDI3djguNzEzaDMuNjE3Yy40MzggMCAuNzg0LS4xMjggMS4wNC0uMzg0LjE0NC0uMTQzLjI1Ny0uMzE0LjMzMy0uNTAzcy4xMTEtLjM5LjEwNi0uNTkzeiIvPiYjeGE7PC9zdmc+;labelPosition=right;align=left;fontStyle=1;spacingLeft=15;fontSize=16;" vertex="1" parent="F12QAWH-6ixrInZiE0VT-66">
          <mxGeometry y="0.5" width="28" height="30" relative="1" as="geometry">
            <mxPoint x="15" y="-15" as="offset" />
          </mxGeometry>
        </mxCell>
        <mxCell id="F12QAWH-6ixrInZiE0VT-68" value="" style="strokeColor=#0070F2;shadow=0;strokeWidth=2;rounded=1;absoluteArcSize=1;arcSize=20;" vertex="1" parent="1">
          <mxGeometry x="601" y="120" width="150" height="40" as="geometry" />
        </mxCell>
        <mxCell id="F12QAWH-6ixrInZiE0VT-69" value="SCIS" style="shape=image;editableCssRules=.*;part=1;verticalLabelPosition=middle;labelBackgroundColor=none;verticalAlign=middle;aspect=fixed;imageAspect=0;image=data:image/svg+xml,PHN2ZyB4bWxucz0iaHR0cDovL3d3dy53My5vcmcvMjAwMC9zdmciIHZpZXdCb3g9Ii0wLjUgLTAuNSAyNi4wODQgMjgiIGhlaWdodD0iMjgiIHdpZHRoPSIyNi4wODQiPiYjeGE7CSAgPHN0eWxlIHR5cGU9InRleHQvY3NzIj4uc3QwIHsgc3RvcC1jb2xvcjogcmdiKDM1LCAxNDksIDI1NSk7IH0gLnN0MSB7IHN0b3AtY29sb3I6IHJnYigwLCA4NywgMjEwKTsgfSA8L3N0eWxlPiYjeGE7CTxkZWZzPiYjeGE7CQk8bGluZWFyR3JhZGllbnQgZ3JhZGllbnRVbml0cz0idXNlclNwYWNlT25Vc2UiIHkyPSIyMy43OTIiIHgyPSIyMy4yNTYiIHkxPSIzLjQ3NCIgeDE9IjEuODY1IiBpZD0iQSI+JiN4YTsJCQk8c3RvcCBjbGFzcz0ic3QwIi8+JiN4YTsJCQk8c3RvcCBjbGFzcz0ic3QxIiBvZmZzZXQ9IjEiLz4mI3hhOwkJPC9saW5lYXJHcmFkaWVudD4mI3hhOwk8L2RlZnM+JiN4YTsJPHBhdGggZmlsbD0idXJsKCNBKSIgZD0iTTI0LjEwNCA4LjEwMmE0Ljk3IDQuOTcgMCAwIDEgMS4wNDIgMS41MzRjLjI5MS41NDkuNDM4IDEuMTUyLjQzOCAxLjgxdjExLjcyNWMwIDEuMjQxLS40MjEgMi4yNjUtMS4yNjIgMy4wNjgtLjgzOC44NDItMS44OCAxLjI2MS0zLjEyMSAxLjI2MUgzLjgyN2E0LjE4IDQuMTggMCAwIDEtMy4wNjgtMS4yNjFDLS4wODEgMjUuNDM2LS41IDI0LjQxMi0uNSAyMy4xNzFWMTEuNDQ0YzAtMS4zODcuNDkxLTIuNTAyIDEuNDc4LTMuMzQyTDkuNjM4LjU5NkE0LjUgNC41IDAgMCAxIDEyLjU5NC0uNSA0LjA5IDQuMDkgMCAwIDEgMTUuNDQ0LjU5NnptLTkuMzcgNy44MzZIMTAuMzV2OC43MTNoNC4zODR6bTcuNzgyLTQuNDk0YzAtLjQ3My0uMTQ3LS44NTktLjQzOC0xLjE1bC04LjY1OC03LjUwNmMtLjYyMS0uNDczLTEuMjYxLS40NzMtMS45MTggMGwtOC42NTUgNy41MDZjLS4yOTMuMjkzLS40MzguNjc3LS40MzggMS4xNTJ2MTEuNzI1YzAgLjQzOC4xMjguODAzLjM4NCAxLjA5NmExLjUzIDEuNTMgMCAwIDAgMS4wNC4zODRoMy42MTd2LTguNzEzYzAtLjgwMy4yNzQtMS40OC44MjEtMi4wMjcuNTg2LS41ODYgMS4yOC0uODc3IDIuMDgzLS44NzdoNC4zODRhMi42NiAyLjY2IDAgMCAxIDIuMDI3Ljg3N2MuNTQ5LjU0Ny44MjIgMS4yMjQuODIyIDIuMDI3djguNzEzaDMuNjE3Yy40MzggMCAuNzg0LS4xMjggMS4wNC0uMzg0LjE0NC0uMTQzLjI1Ny0uMzE0LjMzMy0uNTAzcy4xMTEtLjM5LjEwNi0uNTkzeiIvPiYjeGE7PC9zdmc+;labelPosition=right;align=left;fontStyle=1;spacingLeft=15;fontSize=16;" vertex="1" parent="F12QAWH-6ixrInZiE0VT-68">
          <mxGeometry y="0.5" width="28" height="30" relative="1" as="geometry">
            <mxPoint x="15" y="-15" as="offset" />
          </mxGeometry>
        </mxCell>
        <mxCell id="F12QAWH-6ixrInZiE0VT-70" value="" style="strokeColor=#0070F2;shadow=0;strokeWidth=2;rounded=1;absoluteArcSize=1;arcSize=20;" vertex="1" parent="1">
          <mxGeometry x="601" y="180" width="150" height="40" as="geometry" />
        </mxCell>
        <mxCell id="F12QAWH-6ixrInZiE0VT-71" value="RIS" style="shape=image;editableCssRules=.*;part=1;verticalLabelPosition=middle;labelBackgroundColor=none;verticalAlign=middle;aspect=fixed;imageAspect=0;image=data:image/svg+xml,PHN2ZyB4bWxucz0iaHR0cDovL3d3dy53My5vcmcvMjAwMC9zdmciIHZpZXdCb3g9Ii0wLjUgLTAuNSAyNi4wODQgMjgiIGhlaWdodD0iMjgiIHdpZHRoPSIyNi4wODQiPiYjeGE7CSAgPHN0eWxlIHR5cGU9InRleHQvY3NzIj4uc3QwIHsgc3RvcC1jb2xvcjogcmdiKDM1LCAxNDksIDI1NSk7IH0gLnN0MSB7IHN0b3AtY29sb3I6IHJnYigwLCA4NywgMjEwKTsgfSA8L3N0eWxlPiYjeGE7CTxkZWZzPiYjeGE7CQk8bGluZWFyR3JhZGllbnQgZ3JhZGllbnRVbml0cz0idXNlclNwYWNlT25Vc2UiIHkyPSIyMy43OTIiIHgyPSIyMy4yNTYiIHkxPSIzLjQ3NCIgeDE9IjEuODY1IiBpZD0iQSI+JiN4YTsJCQk8c3RvcCBjbGFzcz0ic3QwIi8+JiN4YTsJCQk8c3RvcCBjbGFzcz0ic3QxIiBvZmZzZXQ9IjEiLz4mI3hhOwkJPC9saW5lYXJHcmFkaWVudD4mI3hhOwk8L2RlZnM+JiN4YTsJPHBhdGggZmlsbD0idXJsKCNBKSIgZD0iTTI0LjEwNCA4LjEwMmE0Ljk3IDQuOTcgMCAwIDEgMS4wNDIgMS41MzRjLjI5MS41NDkuNDM4IDEuMTUyLjQzOCAxLjgxdjExLjcyNWMwIDEuMjQxLS40MjEgMi4yNjUtMS4yNjIgMy4wNjgtLjgzOC44NDItMS44OCAxLjI2MS0zLjEyMSAxLjI2MUgzLjgyN2E0LjE4IDQuMTggMCAwIDEtMy4wNjgtMS4yNjFDLS4wODEgMjUuNDM2LS41IDI0LjQxMi0uNSAyMy4xNzFWMTEuNDQ0YzAtMS4zODcuNDkxLTIuNTAyIDEuNDc4LTMuMzQyTDkuNjM4LjU5NkE0LjUgNC41IDAgMCAxIDEyLjU5NC0uNSA0LjA5IDQuMDkgMCAwIDEgMTUuNDQ0LjU5NnptLTkuMzcgNy44MzZIMTAuMzV2OC43MTNoNC4zODR6bTcuNzgyLTQuNDk0YzAtLjQ3My0uMTQ3LS44NTktLjQzOC0xLjE1bC04LjY1OC03LjUwNmMtLjYyMS0uNDczLTEuMjYxLS40NzMtMS45MTggMGwtOC42NTUgNy41MDZjLS4yOTMuMjkzLS40MzguNjc3LS40MzggMS4xNTJ2MTEuNzI1YzAgLjQzOC4xMjguODAzLjM4NCAxLjA5NmExLjUzIDEuNTMgMCAwIDAgMS4wNC4zODRoMy42MTd2LTguNzEzYzAtLjgwMy4yNzQtMS40OC44MjEtMi4wMjcuNTg2LS41ODYgMS4yOC0uODc3IDIuMDgzLS44NzdoNC4zODRhMi42NiAyLjY2IDAgMCAxIDIuMDI3Ljg3N2MuNTQ5LjU0Ny44MjIgMS4yMjQuODIyIDIuMDI3djguNzEzaDMuNjE3Yy40MzggMCAuNzg0LS4xMjggMS4wNC0uMzg0LjE0NC0uMTQzLjI1Ny0uMzE0LjMzMy0uNTAzcy4xMTEtLjM5LjEwNi0uNTkzeiIvPiYjeGE7PC9zdmc+;labelPosition=right;align=left;fontStyle=1;spacingLeft=15;fontSize=16;" vertex="1" parent="F12QAWH-6ixrInZiE0VT-70">
          <mxGeometry y="0.5" width="28" height="30" relative="1" as="geometry">
            <mxPoint x="15" y="-15" as="offset" />
          </mxGeometry>
        </mxCell>
        <mxCell id="F12QAWH-6ixrInZiE0VT-72" value="" style="strokeColor=#0070F2;shadow=0;strokeWidth=2;rounded=1;absoluteArcSize=1;arcSize=20;" vertex="1" parent="1">
          <mxGeometry x="601" y="240" width="150" height="40" as="geometry" />
        </mxCell>
        <mxCell id="F12QAWH-6ixrInZiE0VT-73" value="IWMS" style="shape=image;editableCssRules=.*;part=1;verticalLabelPosition=middle;labelBackgroundColor=none;verticalAlign=middle;aspect=fixed;imageAspect=0;image=data:image/svg+xml,PHN2ZyB4bWxucz0iaHR0cDovL3d3dy53My5vcmcvMjAwMC9zdmciIHZpZXdCb3g9Ii0wLjUgLTAuNSAyNi4wODQgMjgiIGhlaWdodD0iMjgiIHdpZHRoPSIyNi4wODQiPiYjeGE7CSAgPHN0eWxlIHR5cGU9InRleHQvY3NzIj4uc3QwIHsgc3RvcC1jb2xvcjogcmdiKDM1LCAxNDksIDI1NSk7IH0gLnN0MSB7IHN0b3AtY29sb3I6IHJnYigwLCA4NywgMjEwKTsgfSA8L3N0eWxlPiYjeGE7CTxkZWZzPiYjeGE7CQk8bGluZWFyR3JhZGllbnQgZ3JhZGllbnRVbml0cz0idXNlclNwYWNlT25Vc2UiIHkyPSIyMy43OTIiIHgyPSIyMy4yNTYiIHkxPSIzLjQ3NCIgeDE9IjEuODY1IiBpZD0iQSI+JiN4YTsJCQk8c3RvcCBjbGFzcz0ic3QwIi8+JiN4YTsJCQk8c3RvcCBjbGFzcz0ic3QxIiBvZmZzZXQ9IjEiLz4mI3hhOwkJPC9saW5lYXJHcmFkaWVudD4mI3hhOwk8L2RlZnM+JiN4YTsJPHBhdGggZmlsbD0idXJsKCNBKSIgZD0iTTI0LjEwNCA4LjEwMmE0Ljk3IDQuOTcgMCAwIDEgMS4wNDIgMS41MzRjLjI5MS41NDkuNDM4IDEuMTUyLjQzOCAxLjgxdjExLjcyNWMwIDEuMjQxLS40MjEgMi4yNjUtMS4yNjIgMy4wNjgtLjgzOC44NDItMS44OCAxLjI2MS0zLjEyMSAxLjI2MUgzLjgyN2E0LjE4IDQuMTggMCAwIDEtMy4wNjgtMS4yNjFDLS4wODEgMjUuNDM2LS41IDI0LjQxMi0uNSAyMy4xNzFWMTEuNDQ0YzAtMS4zODcuNDkxLTIuNTAyIDEuNDc4LTMuMzQyTDkuNjM4LjU5NkE0LjUgNC41IDAgMCAxIDEyLjU5NC0uNSA0LjA5IDQuMDkgMCAwIDEgMTUuNDQ0LjU5NnptLTkuMzcgNy44MzZIMTAuMzV2OC43MTNoNC4zODR6bTcuNzgyLTQuNDk0YzAtLjQ3My0uMTQ3LS44NTktLjQzOC0xLjE1bC04LjY1OC03LjUwNmMtLjYyMS0uNDczLTEuMjYxLS40NzMtMS45MTggMGwtOC42NTUgNy41MDZjLS4yOTMuMjkzLS40MzguNjc3LS40MzggMS4xNTJ2MTEuNzI1YzAgLjQzOC4xMjguODAzLjM4NCAxLjA5NmExLjUzIDEuNTMgMCAwIDAgMS4wNC4zODRoMy42MTd2LTguNzEzYzAtLjgwMy4yNzQtMS40OC44MjEtMi4wMjcuNTg2LS41ODYgMS4yOC0uODc3IDIuMDgzLS44NzdoNC4zODRhMi42NiAyLjY2IDAgMCAxIDIuMDI3Ljg3N2MuNTQ5LjU0Ny44MjIgMS4yMjQuODIyIDIuMDI3djguNzEzaDMuNjE3Yy40MzggMCAuNzg0LS4xMjggMS4wNC0uMzg0LjE0NC0uMTQzLjI1Ny0uMzE0LjMzMy0uNTAzcy4xMTEtLjM5LjEwNi0uNTkzeiIvPiYjeGE7PC9zdmc+;labelPosition=right;align=left;fontStyle=1;spacingLeft=15;fontSize=16;" vertex="1" parent="F12QAWH-6ixrInZiE0VT-72">
          <mxGeometry y="0.5" width="28" height="30" relative="1" as="geometry">
            <mxPoint x="15" y="-15" as="offset" />
          </mxGeometry>
        </mxCell>
        <mxCell id="F12QAWH-6ixrInZiE0VT-74" value="SuccessFactors ECP" style="image;image=img/lib/sap/SAP_Logo.svg;editableCssRules=.*;verticalLabelPosition=middle;labelBackgroundColor=none;verticalAlign=middle;imageAspect=0;labelPosition=right;align=left;fontSize=16;fontStyle=1;spacingLeft=0;fontColor=#002A86;spacing=0;" vertex="1" parent="1">
          <mxGeometry x="10" y="465.5" width="37" height="19" as="geometry" />
        </mxCell>
      </root>
    </mxGraphModel>
  </diagram>
  <diagram name="Authentication" id="DFAgvCd9MXojCsXuacXu">
    <mxGraphModel dx="1302" dy="704" grid="1" gridSize="10" guides="1" tooltips="1" connect="1" arrows="1" fold="1" page="1" pageScale="1" pageWidth="850" pageHeight="1100" math="0" shadow="0">
      <root>
        <mxCell id="nuRj7E_rd-V-mNa_CP79-0" />
        <mxCell id="nuRj7E_rd-V-mNa_CP79-1" parent="nuRj7E_rd-V-mNa_CP79-0" />
        <mxCell id="nuRj7E_rd-V-mNa_CP79-2" value="" style="shape=mxgraph.sap.icon;labelPosition=center;verticalLabelPosition=bottom;align=center;verticalAlign=top;strokeWidth=1;strokeColor=#D5DADD;fillColor=#EDEFF0;gradientColor=#FCFCFC;gradientDirection=west;aspect=fixed;SAPIcon=SAP_Integration_Suite" vertex="1" parent="nuRj7E_rd-V-mNa_CP79-1">
          <mxGeometry x="390" y="393" width="70" height="70" as="geometry" />
        </mxCell>
        <mxCell id="nuRj7E_rd-V-mNa_CP79-3" value="&lt;font face=&quot;arial&quot; color=&quot;#1d2d3e&quot;&gt;&lt;span style=&quot;font-size: 14px;&quot;&gt;&lt;b&gt;SAP Integration Suite&lt;/b&gt;&lt;/span&gt;&lt;/font&gt;" style="text;html=1;align=left;verticalAlign=middle;resizable=0;points=[];autosize=1;strokeColor=none;fillColor=none;fontSize=12;fontColor=default;fontFamily=Helvetica;" vertex="1" parent="nuRj7E_rd-V-mNa_CP79-1">
          <mxGeometry x="356" y="460" width="170" height="30" as="geometry" />
        </mxCell>
        <mxCell id="nuRj7E_rd-V-mNa_CP79-4" value="SuccessFactors" style="image;image=img/lib/sap/SAP_Logo.svg;editableCssRules=.*;verticalLabelPosition=middle;labelBackgroundColor=none;verticalAlign=middle;imageAspect=0;labelPosition=right;align=left;fontSize=16;fontStyle=1;spacingLeft=0;fontColor=#002A86;spacing=0;" vertex="1" parent="nuRj7E_rd-V-mNa_CP79-1">
          <mxGeometry x="10" y="418.5" width="37" height="19" as="geometry" />
        </mxCell>
        <mxCell id="nuRj7E_rd-V-mNa_CP79-5" value="" style="sketch=0;outlineConnect=0;fontColor=#232F3E;gradientColor=none;fillColor=#01A88D;strokeColor=none;dashed=0;verticalLabelPosition=bottom;verticalAlign=top;align=center;html=1;fontSize=12;fontStyle=0;aspect=fixed;shape=mxgraph.aws4.transfer_for_sftp_resource;" vertex="1" parent="nuRj7E_rd-V-mNa_CP79-1">
          <mxGeometry x="390" y="590" width="76" height="78" as="geometry" />
        </mxCell>
        <mxCell id="nuRj7E_rd-V-mNa_CP79-6" value="" style="strokeColor=#0070F2;shadow=0;strokeWidth=2;rounded=1;absoluteArcSize=1;arcSize=20;" vertex="1" parent="nuRj7E_rd-V-mNa_CP79-1">
          <mxGeometry x="700" y="393" width="160" height="90" as="geometry" />
        </mxCell>
        <mxCell id="nuRj7E_rd-V-mNa_CP79-7" value="3rd Party APIs &amp;&#xa;Applications" style="shape=image;editableCssRules=.*;part=1;verticalLabelPosition=bottom;labelBackgroundColor=default;verticalAlign=top;imageAspect=0;image=data:image/svg+xml,PHN2ZyB4bWxucz0iaHR0cDovL3d3dy53My5vcmcvMjAwMC9zdmciIHZpZXdCb3g9Ii0wLjUgLTAuNSAyOCAxOC40MTIiIGhlaWdodD0iMTguNDEyIiB3aWR0aD0iMjgiPiYjeGE7CSAgPHN0eWxlIHR5cGU9InRleHQvY3NzIj4uc3QwIHsgc3RvcC1jb2xvcjogcmdiKDM1LCAxNDksIDI1NSk7IH0gLnN0MSB7IHN0b3AtY29sb3I6IHJnYigwLCA4NywgMjEwKTsgfSA8L3N0eWxlPiYjeGE7CTxkZWZzPiYjeGE7CQk8bGluZWFyR3JhZGllbnQgZ3JhZGllbnRVbml0cz0idXNlclNwYWNlT25Vc2UiIHkyPSIyMi4wMDgiIHgyPSIxNC44NjkiIHkxPSIyLjExMyIgeDE9IjIuMDM5IiBpZD0iQSI+JiN4YTsJCQk8c3RvcCBjbGFzcz0ic3QwIi8+JiN4YTsJCQk8c3RvcCBjbGFzcz0ic3QxIiBvZmZzZXQ9IjEiLz4mI3hhOwkJPC9saW5lYXJHcmFkaWVudD4mI3hhOwk8L2RlZnM+JiN4YTsJPHBhdGggZmlsbD0idXJsKCNBKSIgZD0iTTUuOTAzIDYuMDQ3QzYuNDM0IDIuMzQ1IDkuNjE5LS41IDEzLjQ2Ny0uNWMyLjgwMSAwIDUuMjQ3IDEuNTA2IDYuNTc3IDMuNzQ5aC4xMjRjNC4wNDkgMCA3LjMzMSAzLjI4MiA3LjMzMSA3LjMzMXMtMy4yODIgNy4zMzEtNy4zMzEgNy4zMzFoLTQuMDU0Yy0uMDg3IDAtLjE3My0uMDAyLS4yNTktLjAwNS0uMDc4LjAwMy0uMTU1LjAwNS0uMjMzLjAwNUg1LjQzMmMtMy4yNzYgMC01LjkzMi0yLjY1Ni01LjkzMi01LjkzMnMyLjY1Ni01LjkzMiA1LjkzMi01LjkzMnpNMTMuNDY3IDIuM2MtMi42NzQgMC00Ljg0MiAyLjE2OC00Ljg0MiA0Ljg0MmE0Ljk0IDQuOTQgMCAwIDAgLjAwNi4yMzggMS40IDEuNCAwIDAgMS0xLjM5OCAxLjQ2N2gtMS44Yy0xLjczIDAtMy4xMzIgMS40MDItMy4xMzIgMy4xMzJzMS40MDIgMy4xMzIgMy4xMzIgMy4xMzJoMTAuMTlhMy4xNCAzLjE0IDAgMCAwIC4xNi0uMDA0IDEuMzkgMS4zOSAwIDAgMSAuMTMxIDBjLjA2Ny4wMDMuMTM0LjAwNC4yMDIuMDA0aDQuMDU0YTQuNTMgNC41MyAwIDEgMCAwLTkuMDYyaC0uOTc3YTEuNCAxLjQgMCAwIDEtMS4yODMtLjg0QzE3LjE2MSAzLjQ5NCAxNS40NTIgMi4zIDEzLjQ2NyAyLjN6IiBmaWxsLXJ1bGU9ImV2ZW5vZGQiLz4mI3hhOzwvc3ZnPg==;labelPosition=center;align=left;fontSize=16;fontStyle=1;spacingLeft=0;" vertex="1" parent="nuRj7E_rd-V-mNa_CP79-6">
          <mxGeometry y="0.5" width="34" height="22" relative="1" as="geometry">
            <mxPoint x="15" y="-33" as="offset" />
          </mxGeometry>
        </mxCell>
        <mxCell id="nuRj7E_rd-V-mNa_CP79-8" value="" style="endArrow=blockThin;html=1;strokeColor=#475E75;bendable=1;rounded=0;endFill=1;endSize=4;strokeWidth=1.5;startSize=4;startArrow=none;startFill=0;edgeStyle=orthogonalEdgeStyle;" edge="1" parent="nuRj7E_rd-V-mNa_CP79-1" source="nuRj7E_rd-V-mNa_CP79-10" target="nuRj7E_rd-V-mNa_CP79-6">
          <mxGeometry width="50" height="50" relative="1" as="geometry">
            <mxPoint x="450" y="475" as="sourcePoint" />
            <mxPoint x="710" y="376" as="targetPoint" />
            <Array as="points">
              <mxPoint x="670" y="434" />
              <mxPoint x="670" y="434" />
            </Array>
          </mxGeometry>
        </mxCell>
        <mxCell id="nuRj7E_rd-V-mNa_CP79-9" value="" style="endArrow=none;html=1;strokeColor=#475E75;bendable=1;rounded=0;endFill=0;endSize=4;strokeWidth=1.5;startSize=4;startArrow=none;startFill=0;edgeStyle=orthogonalEdgeStyle;exitX=1.04;exitY=0.603;exitDx=0;exitDy=0;exitPerimeter=0;" edge="1" parent="nuRj7E_rd-V-mNa_CP79-1" source="nuRj7E_rd-V-mNa_CP79-2" target="nuRj7E_rd-V-mNa_CP79-10">
          <mxGeometry width="50" height="50" relative="1" as="geometry">
            <mxPoint x="510" y="434" as="sourcePoint" />
            <mxPoint x="700" y="435" as="targetPoint" />
            <Array as="points">
              <mxPoint x="463" y="434" />
            </Array>
          </mxGeometry>
        </mxCell>
        <mxCell id="nuRj7E_rd-V-mNa_CP79-10" value="OAuth 2.0" style="rounded=1;whiteSpace=wrap;html=1;strokeColor=#475E75;strokeWidth=1.5;arcSize=16;fillColor=#FFFFFF;perimeterSpacing=0;absoluteArcSize=1;fontColor=#475E75;fontSize=10;fontStyle=1" vertex="1" parent="nuRj7E_rd-V-mNa_CP79-1">
          <mxGeometry x="550" y="425" width="51" height="16" as="geometry" />
        </mxCell>
        <mxCell id="nuRj7E_rd-V-mNa_CP79-12" value="" style="endArrow=none;html=1;strokeColor=#475E75;bendable=1;rounded=0;endFill=0;strokeWidth=1.5;startArrow=none;startFill=0;edgeStyle=orthogonalEdgeStyle;" edge="1" parent="nuRj7E_rd-V-mNa_CP79-1" target="nuRj7E_rd-V-mNa_CP79-14">
          <mxGeometry width="50" height="50" relative="1" as="geometry">
            <mxPoint x="370" y="432.5" as="sourcePoint" />
            <mxPoint x="167" y="473.5" as="targetPoint" />
            <Array as="points">
              <mxPoint x="387" y="432.5" />
              <mxPoint x="387" y="432.5" />
            </Array>
          </mxGeometry>
        </mxCell>
        <mxCell id="nuRj7E_rd-V-mNa_CP79-13" value="" style="endArrow=classic;html=1;strokeColor=#475E75;bendable=1;rounded=0;endFill=1;endSize=4;strokeWidth=1.5;startSize=4;startArrow=none;startFill=0;edgeStyle=orthogonalEdgeStyle;" edge="1" parent="nuRj7E_rd-V-mNa_CP79-1" source="nuRj7E_rd-V-mNa_CP79-14">
          <mxGeometry width="50" height="50" relative="1" as="geometry">
            <mxPoint x="417" y="433.5" as="sourcePoint" />
            <mxPoint x="180" y="432.5" as="targetPoint" />
            <Array as="points">
              <mxPoint x="180" y="432.5" />
            </Array>
          </mxGeometry>
        </mxCell>
        <mxCell id="nuRj7E_rd-V-mNa_CP79-14" value="OData / OAuth 2.0" style="rounded=1;whiteSpace=wrap;html=1;strokeColor=#475E75;strokeWidth=1.5;arcSize=16;fillColor=#FFFFFF;perimeterSpacing=0;absoluteArcSize=1;fontColor=#475E75;fontSize=10;fontStyle=1;direction=east;" vertex="1" parent="nuRj7E_rd-V-mNa_CP79-1">
          <mxGeometry x="267" y="423.5" width="51" height="26.5" as="geometry" />
        </mxCell>
        <mxCell id="nuRj7E_rd-V-mNa_CP79-52" value="SuccessFactors ECP" style="image;image=img/lib/sap/SAP_Logo.svg;editableCssRules=.*;verticalLabelPosition=middle;labelBackgroundColor=none;verticalAlign=middle;imageAspect=0;labelPosition=right;align=left;fontSize=16;fontStyle=1;spacingLeft=0;fontColor=#002A86;spacing=0;" vertex="1" parent="nuRj7E_rd-V-mNa_CP79-1">
          <mxGeometry x="10" y="465.5" width="37" height="19" as="geometry" />
        </mxCell>
        <mxCell id="-TicYZCVX7Oob3TEjb5y-1" value="&lt;p style=&quot;line-height: 114%;&quot;&gt;&lt;font color=&quot;#475f75&quot; size=&quot;1&quot;&gt;&lt;b style=&quot;&quot;&gt;TEXT&lt;/b&gt;&lt;/font&gt;&lt;/p&gt;" style="rounded=1;whiteSpace=wrap;html=1;arcSize=50;strokeColor=#475f75;fillColor=#f5f6f7;fontColor=#266f3a;strokeWidth=1.5;direction=east;rotation=0;" vertex="1" parent="nuRj7E_rd-V-mNa_CP79-1">
          <mxGeometry x="1070" y="164" width="41.99" height="16" as="geometry" />
        </mxCell>
        <mxCell id="-TicYZCVX7Oob3TEjb5y-2" value="" style="endArrow=none;html=1;rounded=0;entryX=0.5;entryY=0;entryDx=0;entryDy=0;strokeColor=#475f75;strokeWidth=1.5;" edge="1" target="-TicYZCVX7Oob3TEjb5y-1" parent="nuRj7E_rd-V-mNa_CP79-1">
          <mxGeometry width="50" height="50" relative="1" as="geometry">
            <mxPoint x="1091" y="120" as="sourcePoint" />
            <mxPoint x="1090" y="162" as="targetPoint" />
          </mxGeometry>
        </mxCell>
        <mxCell id="-TicYZCVX7Oob3TEjb5y-3" value="" style="endArrow=blockThin;html=1;rounded=0;strokeColor=#475f75;strokeWidth=1.5;endFill=1;endSize=4;startSize=4;exitX=0.5;exitY=1;exitDx=0;exitDy=0;" edge="1" source="-TicYZCVX7Oob3TEjb5y-1" parent="nuRj7E_rd-V-mNa_CP79-1">
          <mxGeometry width="50" height="50" relative="1" as="geometry">
            <mxPoint x="1091" y="184" as="sourcePoint" />
            <mxPoint x="1091" y="230" as="targetPoint" />
          </mxGeometry>
        </mxCell>
        <mxCell id="-TicYZCVX7Oob3TEjb5y-4" value="&lt;p style=&quot;line-height: 114%;&quot;&gt;&lt;font color=&quot;#475f75&quot; size=&quot;1&quot;&gt;&lt;b style=&quot;&quot;&gt;Username / Password&lt;/b&gt;&lt;/font&gt;&lt;/p&gt;" style="rounded=1;whiteSpace=wrap;html=1;arcSize=50;strokeColor=#475f75;fillColor=#f5f6f7;fontColor=#266f3a;strokeWidth=1.5;direction=east;rotation=0;" vertex="1" parent="nuRj7E_rd-V-mNa_CP79-1">
          <mxGeometry x="380" y="534" width="90" height="26" as="geometry" />
        </mxCell>
        <mxCell id="-TicYZCVX7Oob3TEjb5y-5" value="" style="endArrow=none;html=1;rounded=0;entryX=0.5;entryY=0;entryDx=0;entryDy=0;strokeColor=#475f75;strokeWidth=1.5;" edge="1" parent="nuRj7E_rd-V-mNa_CP79-1" target="-TicYZCVX7Oob3TEjb5y-4">
          <mxGeometry width="50" height="50" relative="1" as="geometry">
            <mxPoint x="425" y="490" as="sourcePoint" />
            <mxPoint x="424" y="532" as="targetPoint" />
          </mxGeometry>
        </mxCell>
        <mxCell id="-TicYZCVX7Oob3TEjb5y-6" value="" style="endArrow=blockThin;html=1;rounded=0;strokeColor=#475f75;strokeWidth=1.5;endFill=1;endSize=4;startSize=4;exitX=0.5;exitY=1;exitDx=0;exitDy=0;" edge="1" parent="nuRj7E_rd-V-mNa_CP79-1" source="-TicYZCVX7Oob3TEjb5y-4">
          <mxGeometry width="50" height="50" relative="1" as="geometry">
            <mxPoint x="425" y="554" as="sourcePoint" />
            <mxPoint x="425" y="600" as="targetPoint" />
          </mxGeometry>
        </mxCell>
        <mxCell id="9kkuU-BJgOLOZ66SjbMX-0" value="" style="strokeColor=#0070F2;shadow=0;strokeWidth=2;rounded=1;absoluteArcSize=1;arcSize=146;" vertex="1" parent="nuRj7E_rd-V-mNa_CP79-1">
          <mxGeometry x="356" y="230" width="150" height="40" as="geometry" />
        </mxCell>
        <mxCell id="9kkuU-BJgOLOZ66SjbMX-1" value="Solace" style="shape=image;editableCssRules=.*;part=1;verticalLabelPosition=middle;labelBackgroundColor=none;verticalAlign=middle;aspect=fixed;imageAspect=0;image=data:image/svg+xml,PHN2ZyB4bWxucz0iaHR0cDovL3d3dy53My5vcmcvMjAwMC9zdmciIHZpZXdCb3g9Ii0wLjUgLTAuNSAyNi4wODQgMjgiIGhlaWdodD0iMjgiIHdpZHRoPSIyNi4wODQiPiYjeGE7CSAgPHN0eWxlIHR5cGU9InRleHQvY3NzIj4uc3QwIHsgc3RvcC1jb2xvcjogcmdiKDM1LCAxNDksIDI1NSk7IH0gLnN0MSB7IHN0b3AtY29sb3I6IHJnYigwLCA4NywgMjEwKTsgfSA8L3N0eWxlPiYjeGE7CTxkZWZzPiYjeGE7CQk8bGluZWFyR3JhZGllbnQgZ3JhZGllbnRVbml0cz0idXNlclNwYWNlT25Vc2UiIHkyPSIyMy43OTIiIHgyPSIyMy4yNTYiIHkxPSIzLjQ3NCIgeDE9IjEuODY1IiBpZD0iQSI+JiN4YTsJCQk8c3RvcCBjbGFzcz0ic3QwIi8+JiN4YTsJCQk8c3RvcCBjbGFzcz0ic3QxIiBvZmZzZXQ9IjEiLz4mI3hhOwkJPC9saW5lYXJHcmFkaWVudD4mI3hhOwk8L2RlZnM+JiN4YTsJPHBhdGggZmlsbD0idXJsKCNBKSIgZD0iTTI0LjEwNCA4LjEwMmE0Ljk3IDQuOTcgMCAwIDEgMS4wNDIgMS41MzRjLjI5MS41NDkuNDM4IDEuMTUyLjQzOCAxLjgxdjExLjcyNWMwIDEuMjQxLS40MjEgMi4yNjUtMS4yNjIgMy4wNjgtLjgzOC44NDItMS44OCAxLjI2MS0zLjEyMSAxLjI2MUgzLjgyN2E0LjE4IDQuMTggMCAwIDEtMy4wNjgtMS4yNjFDLS4wODEgMjUuNDM2LS41IDI0LjQxMi0uNSAyMy4xNzFWMTEuNDQ0YzAtMS4zODcuNDkxLTIuNTAyIDEuNDc4LTMuMzQyTDkuNjM4LjU5NkE0LjUgNC41IDAgMCAxIDEyLjU5NC0uNSA0LjA5IDQuMDkgMCAwIDEgMTUuNDQ0LjU5NnptLTkuMzcgNy44MzZIMTAuMzV2OC43MTNoNC4zODR6bTcuNzgyLTQuNDk0YzAtLjQ3My0uMTQ3LS44NTktLjQzOC0xLjE1bC04LjY1OC03LjUwNmMtLjYyMS0uNDczLTEuMjYxLS40NzMtMS45MTggMGwtOC42NTUgNy41MDZjLS4yOTMuMjkzLS40MzguNjc3LS40MzggMS4xNTJ2MTEuNzI1YzAgLjQzOC4xMjguODAzLjM4NCAxLjA5NmExLjUzIDEuNTMgMCAwIDAgMS4wNC4zODRoMy42MTd2LTguNzEzYzAtLjgwMy4yNzQtMS40OC44MjEtMi4wMjcuNTg2LS41ODYgMS4yOC0uODc3IDIuMDgzLS44NzdoNC4zODRhMi42NiAyLjY2IDAgMCAxIDIuMDI3Ljg3N2MuNTQ5LjU0Ny44MjIgMS4yMjQuODIyIDIuMDI3djguNzEzaDMuNjE3Yy40MzggMCAuNzg0LS4xMjggMS4wNC0uMzg0LjE0NC0uMTQzLjI1Ny0uMzE0LjMzMy0uNTAzcy4xMTEtLjM5LjEwNi0uNTkzeiIvPiYjeGE7PC9zdmc+;labelPosition=right;align=left;fontStyle=1;spacingLeft=15;fontSize=16;" vertex="1" parent="9kkuU-BJgOLOZ66SjbMX-0">
          <mxGeometry y="0.5" width="28.47" height="30.5" relative="1" as="geometry">
            <mxPoint x="15" y="-15.5" as="offset" />
          </mxGeometry>
        </mxCell>
        <mxCell id="9kkuU-BJgOLOZ66SjbMX-5" value="&lt;p style=&quot;line-height: 114%;&quot;&gt;&lt;font color=&quot;#475f75&quot; size=&quot;1&quot;&gt;&lt;b style=&quot;&quot;&gt;TEXT&lt;/b&gt;&lt;/font&gt;&lt;/p&gt;" style="rounded=1;whiteSpace=wrap;html=1;arcSize=50;strokeColor=#475f75;fillColor=#f5f6f7;fontColor=#266f3a;strokeWidth=1.5;direction=east;rotation=0;" vertex="1" parent="nuRj7E_rd-V-mNa_CP79-1">
          <mxGeometry x="1200" y="164" width="41.99" height="16" as="geometry" />
        </mxCell>
        <mxCell id="9kkuU-BJgOLOZ66SjbMX-6" value="" style="endArrow=none;html=1;rounded=0;entryX=0.5;entryY=0;entryDx=0;entryDy=0;strokeColor=#475f75;strokeWidth=1.5;endFill=0;startArrow=classic;startFill=1;" edge="1" parent="nuRj7E_rd-V-mNa_CP79-1" target="9kkuU-BJgOLOZ66SjbMX-5">
          <mxGeometry width="50" height="50" relative="1" as="geometry">
            <mxPoint x="1221" y="120" as="sourcePoint" />
            <mxPoint x="1220" y="162" as="targetPoint" />
          </mxGeometry>
        </mxCell>
        <mxCell id="9kkuU-BJgOLOZ66SjbMX-7" value="" style="endArrow=blockThin;html=1;rounded=0;strokeColor=#475f75;strokeWidth=1.5;endFill=1;endSize=4;startSize=4;exitX=0.5;exitY=1;exitDx=0;exitDy=0;" edge="1" parent="nuRj7E_rd-V-mNa_CP79-1" source="9kkuU-BJgOLOZ66SjbMX-5">
          <mxGeometry width="50" height="50" relative="1" as="geometry">
            <mxPoint x="1221" y="184" as="sourcePoint" />
            <mxPoint x="1221" y="230" as="targetPoint" />
          </mxGeometry>
        </mxCell>
        <mxCell id="9kkuU-BJgOLOZ66SjbMX-8" value="&lt;p style=&quot;line-height: 114%;&quot;&gt;&lt;font color=&quot;#475f75&quot; size=&quot;1&quot;&gt;&lt;b style=&quot;&quot;&gt;Client Certificate&lt;/b&gt;&lt;/font&gt;&lt;/p&gt;" style="rounded=1;whiteSpace=wrap;html=1;arcSize=50;strokeColor=#475f75;fillColor=#f5f6f7;fontColor=#266f3a;strokeWidth=1.5;direction=east;rotation=0;" vertex="1" parent="nuRj7E_rd-V-mNa_CP79-1">
          <mxGeometry x="380" y="324" width="90" height="16" as="geometry" />
        </mxCell>
        <mxCell id="9kkuU-BJgOLOZ66SjbMX-9" value="" style="endArrow=none;html=1;rounded=0;entryX=0.5;entryY=0;entryDx=0;entryDy=0;strokeColor=#475f75;strokeWidth=1.5;endFill=0;startArrow=classic;startFill=1;" edge="1" parent="nuRj7E_rd-V-mNa_CP79-1" target="9kkuU-BJgOLOZ66SjbMX-8">
          <mxGeometry width="50" height="50" relative="1" as="geometry">
            <mxPoint x="425" y="280" as="sourcePoint" />
            <mxPoint x="424" y="322" as="targetPoint" />
          </mxGeometry>
        </mxCell>
        <mxCell id="9kkuU-BJgOLOZ66SjbMX-10" value="" style="endArrow=blockThin;html=1;rounded=0;strokeColor=#475f75;strokeWidth=1.5;endFill=1;endSize=4;startSize=4;exitX=0.5;exitY=1;exitDx=0;exitDy=0;" edge="1" parent="nuRj7E_rd-V-mNa_CP79-1" source="9kkuU-BJgOLOZ66SjbMX-8">
          <mxGeometry width="50" height="50" relative="1" as="geometry">
            <mxPoint x="425" y="344" as="sourcePoint" />
            <mxPoint x="425" y="390" as="targetPoint" />
          </mxGeometry>
        </mxCell>
      </root>
    </mxGraphModel>
  </diagram>
  <diagram id="WABKJMn9xFO7jb-q7mnf" name="Inbound">
    <mxGraphModel dx="1302" dy="704" grid="1" gridSize="10" guides="1" tooltips="1" connect="1" arrows="1" fold="1" page="1" pageScale="1" pageWidth="850" pageHeight="1100" math="0" shadow="0">
      <root>
        <mxCell id="0" />
        <mxCell id="1" parent="0" />
        <mxCell id="kmOTIs-3_IvJB-gg4GxT-14" style="edgeStyle=orthogonalEdgeStyle;rounded=0;orthogonalLoop=1;jettySize=auto;html=1;entryX=0;entryY=0.5;entryDx=0;entryDy=0;" edge="1" parent="1" source="kmOTIs-3_IvJB-gg4GxT-5" target="kmOTIs-3_IvJB-gg4GxT-11">
          <mxGeometry relative="1" as="geometry" />
        </mxCell>
        <mxCell id="kmOTIs-3_IvJB-gg4GxT-5" value="" style="strokeColor=#0070F2;shadow=0;strokeWidth=2;rounded=1;absoluteArcSize=1;arcSize=20;" vertex="1" parent="1">
          <mxGeometry x="305" y="230" width="120" height="50" as="geometry" />
        </mxCell>
        <mxCell id="kmOTIs-3_IvJB-gg4GxT-19" style="edgeStyle=orthogonalEdgeStyle;rounded=0;orthogonalLoop=1;jettySize=auto;html=1;entryX=1;entryY=0.5;entryDx=0;entryDy=0;" edge="1" parent="1" source="kmOTIs-3_IvJB-gg4GxT-7" target="kmOTIs-3_IvJB-gg4GxT-9">
          <mxGeometry relative="1" as="geometry" />
        </mxCell>
        <mxCell id="kmOTIs-3_IvJB-gg4GxT-7" value="" style="strokeColor=#0070F2;shadow=0;strokeWidth=2;rounded=1;absoluteArcSize=1;arcSize=20;" vertex="1" parent="1">
          <mxGeometry x="480" y="323" width="120" height="50" as="geometry" />
        </mxCell>
        <mxCell id="kmOTIs-3_IvJB-gg4GxT-21" style="edgeStyle=orthogonalEdgeStyle;rounded=0;orthogonalLoop=1;jettySize=auto;html=1;entryX=0.5;entryY=0;entryDx=0;entryDy=0;" edge="1" parent="1" source="kmOTIs-3_IvJB-gg4GxT-9" target="kmOTIs-3_IvJB-gg4GxT-20">
          <mxGeometry relative="1" as="geometry" />
        </mxCell>
        <mxCell id="kmOTIs-3_IvJB-gg4GxT-9" value="" style="strokeColor=#0070F2;shadow=0;strokeWidth=2;rounded=1;absoluteArcSize=1;arcSize=20;" vertex="1" parent="1">
          <mxGeometry x="310" y="323" width="120" height="50" as="geometry" />
        </mxCell>
        <mxCell id="kmOTIs-3_IvJB-gg4GxT-15" style="edgeStyle=orthogonalEdgeStyle;rounded=0;orthogonalLoop=1;jettySize=auto;html=1;entryX=0;entryY=0.5;entryDx=0;entryDy=0;" edge="1" parent="1" source="kmOTIs-3_IvJB-gg4GxT-11" target="kmOTIs-3_IvJB-gg4GxT-13">
          <mxGeometry relative="1" as="geometry" />
        </mxCell>
        <mxCell id="kmOTIs-3_IvJB-gg4GxT-11" value="" style="strokeColor=#0070F2;shadow=0;strokeWidth=2;rounded=1;absoluteArcSize=1;arcSize=20;" vertex="1" parent="1">
          <mxGeometry x="480" y="230" width="120" height="50" as="geometry" />
        </mxCell>
        <mxCell id="kmOTIs-3_IvJB-gg4GxT-17" style="edgeStyle=orthogonalEdgeStyle;rounded=0;orthogonalLoop=1;jettySize=auto;html=1;entryX=0.5;entryY=0;entryDx=0;entryDy=0;" edge="1" parent="1" source="kmOTIs-3_IvJB-gg4GxT-13" target="kmOTIs-3_IvJB-gg4GxT-16">
          <mxGeometry relative="1" as="geometry" />
        </mxCell>
        <mxCell id="kmOTIs-3_IvJB-gg4GxT-13" value="" style="strokeColor=#0070F2;shadow=0;strokeWidth=2;rounded=1;absoluteArcSize=1;arcSize=20;" vertex="1" parent="1">
          <mxGeometry x="650" y="230" width="120" height="50" as="geometry" />
        </mxCell>
        <mxCell id="kmOTIs-3_IvJB-gg4GxT-18" style="edgeStyle=orthogonalEdgeStyle;rounded=0;orthogonalLoop=1;jettySize=auto;html=1;" edge="1" parent="1" source="kmOTIs-3_IvJB-gg4GxT-16" target="kmOTIs-3_IvJB-gg4GxT-7">
          <mxGeometry relative="1" as="geometry" />
        </mxCell>
        <mxCell id="kmOTIs-3_IvJB-gg4GxT-16" value="" style="strokeColor=#0070F2;shadow=0;strokeWidth=2;rounded=1;absoluteArcSize=1;arcSize=20;" vertex="1" parent="1">
          <mxGeometry x="650" y="323" width="120" height="50" as="geometry" />
        </mxCell>
        <mxCell id="kmOTIs-3_IvJB-gg4GxT-20" value="" style="strokeColor=#0070F2;shadow=0;strokeWidth=2;rounded=1;absoluteArcSize=1;arcSize=20;" vertex="1" parent="1">
          <mxGeometry x="310" y="418" width="120" height="50" as="geometry" />
        </mxCell>
        <mxCell id="kmOTIs-3_IvJB-gg4GxT-23" value="End" style="points=[[0.145,0.145,0],[0.5,0,0],[0.855,0.145,0],[1,0.5,0],[0.855,0.855,0],[0.5,1,0],[0.145,0.855,0],[0,0.5,0]];shape=mxgraph.bpmn.event;html=1;verticalLabelPosition=bottom;labelBackgroundColor=#ffffff;verticalAlign=top;align=center;perimeter=ellipsePerimeter;outlineConnect=0;aspect=fixed;outline=end;symbol=message;strokeColor=#0070f2;" vertex="1" parent="1">
          <mxGeometry x="200" y="418" width="50" height="50" as="geometry" />
        </mxCell>
        <mxCell id="kmOTIs-3_IvJB-gg4GxT-26" style="edgeStyle=orthogonalEdgeStyle;rounded=0;orthogonalLoop=1;jettySize=auto;html=1;entryX=0;entryY=0.5;entryDx=0;entryDy=0;" edge="1" parent="1" source="kmOTIs-3_IvJB-gg4GxT-25" target="kmOTIs-3_IvJB-gg4GxT-5">
          <mxGeometry relative="1" as="geometry" />
        </mxCell>
        <mxCell id="kmOTIs-3_IvJB-gg4GxT-25" value="Start" style="points=[[0.145,0.145,0],[0.5,0,0],[0.855,0.145,0],[1,0.5,0],[0.855,0.855,0],[0.5,1,0],[0.145,0.855,0],[0,0.5,0]];shape=mxgraph.bpmn.event;html=1;verticalLabelPosition=bottom;labelBackgroundColor=#ffffff;verticalAlign=top;align=center;perimeter=ellipsePerimeter;outlineConnect=0;aspect=fixed;outline=standard;symbol=message;strokeColor=#0070f2;" vertex="1" parent="1">
          <mxGeometry x="200" y="230" width="50" height="50" as="geometry" />
        </mxCell>
        <mxCell id="w4TNwY7dQcReaOa-zlrU-1" value="Mandatory &#xa;Field Check" style="shape=image;editableCssRules=.*;verticalLabelPosition=middle;labelBackgroundColor=default;verticalAlign=middle;aspect=fixed;imageAspect=0;image=data:image/svg+xml,PHN2ZyB4bWxucz0iaHR0cDovL3d3dy53My5vcmcvMjAwMC9zdmciIHZpZXdCb3g9Ii0wLjUgLTAuNSA0NS4xNzYgNDIuNDQ4IiBoZWlnaHQ9IjQyLjQ0OCIgd2lkdGg9IjQ1LjE3NiI+JiN4YTsJICA8c3R5bGUgdHlwZT0idGV4dC9jc3MiPi5zdDAgeyBzdG9wLWNvbG9yOiByZ2IoMzUsIDE0OSwgMjU1KTsgfSAuc3QxIHsgc3RvcC1jb2xvcjogcmdiKDAsIDg3LCAyMTApOyB9IDwvc3R5bGU+JiN4YTsJPGRlZnM+JiN4YTsJCTxsaW5lYXJHcmFkaWVudCBncmFkaWVudFVuaXRzPSJ1c2VyU3BhY2VPblVzZSIgeTI9IjQxLjk0OCIgeDI9IjIyLjA4OCIgeTE9Ii0uNSIgeDE9IjIyLjA4OCIgaWQ9IkEiPiYjeGE7CQkJPHN0b3AgY2xhc3M9InN0MCIvPiYjeGE7CQkJPHN0b3AgY2xhc3M9InN0MSIgb2Zmc2V0PSIxIi8+JiN4YTsJCTwvbGluZWFyR3JhZGllbnQ+JiN4YTsJPC9kZWZzPiYjeGE7CTxwYXRoIGZpbGw9InVybCgjQSkiIGQ9Ik00My45NzEgMzMuNjU1Yy40NzIuNzYyLjcwNiAxLjY0Ni43MDYgMi42NDYgMCAxLjQ3MS0uNTMxIDIuNzk1LTEuNTkgMy45Ny0xLjA1NiAxLjExOC0yLjQxMSAxLjY3Ny00LjA1NyAxLjY3N0g1LjE0N2MtMS42NDYgMC0zLjAwMS0uNTU5LTQuMDYtMS42NzdDLjAzMSAzOS4wOTYtLjUgMzcuNzc0LS41IDM2LjMwMWMwLTEgLjIzNC0xLjg4LjcwNi0yLjY0NkwxNy4xNDcgMi41MDljLjUzMS0xLjAwMiAxLjIzNy0xLjczNiAyLjExOC0yLjIxMS44NDktLjUyMiAxLjgyNy0uNzk4IDIuODI0LS43OThzMS45NzQuMjc2IDIuODI0Ljc5OGMuODg0LjQ3MiAxLjU5IDEuMjA2IDIuMTE4IDIuMjA1em0tMjQuNzA2LTkuMzU3YzAgLjgyNC4yNjUgMS41My43OTMgMi4xMTguMjY2LjI2NC41ODQuNDcxLjkzMy42MDhzLjcyMy4yMDEgMS4wOTcuMTg4Yy4zNzQuMDE0Ljc0OC0uMDQ5IDEuMDk3LS4xODZzLjY2Ny0uMzQyLjkzMy0uNjA1Yy41MjgtLjU5My43OTMtMS4yOTkuNzkzLTIuMTE4VjEzLjAwOWMwLS43NjgtLjI2NS0xLjQxMi0uNzkzLTEuOTQzYTIuNjEgMi42MSAwIDAgMC0yLjAzLS44ODcgMi42MSAyLjYxIDAgMCAwLTIuMDMuODg0IDIuNjQgMi42NCAwIDAgMC0uNzkzIDEuOTR6bTIuODI0IDEzLjE0NmMuOTQgMCAxLjczNi0uMzIyIDIuMzgzLS45NjhzLjk3MS0xLjQ3MS45NzEtMi40NzFjMC0uOTQzLS4zMjUtMS43MzYtLjk3MS0yLjM4M2EzLjIzIDMuMjMgMCAwIDAtMi4zODMtLjk3MWMtLjk0IDAtMS43MzYuMzI1LTIuMzgzLjk3MWEzLjI0IDMuMjQgMCAwIDAtLjk2OCAyLjM4M2MwIDEgLjMyMiAxLjgyNC45NjggMi40NzFzMS40NC45NzEgMi4zODMuOTcxeiIvPiYjeGE7PC9zdmc+;labelPosition=right;align=left;" vertex="1" parent="1">
          <mxGeometry x="489.29" y="336" width="25.71" height="24" as="geometry" />
        </mxCell>
        <mxCell id="w4TNwY7dQcReaOa-zlrU-9" value="Duplicate File &#xa;Check" style="shape=image;editableCssRules=.*;verticalLabelPosition=middle;labelBackgroundColor=default;verticalAlign=middle;aspect=fixed;imageAspect=0;image=data:image/svg+xml,PHN2ZyB4bWxucz0iaHR0cDovL3d3dy53My5vcmcvMjAwMC9zdmciIHZpZXdCb3g9Ii0wLjUgLTAuNSA0Ny45MDcgNDMuMjA3IiBoZWlnaHQ9IjQzLjIwNyIgd2lkdGg9IjQ3LjkwNyI+JiN4YTsJICA8c3R5bGUgdHlwZT0idGV4dC9jc3MiPiYjeGE7CQkuc3Qwe3N0b3AtY29sb3I6IzViNzM4Yjt9JiN4YTsJCS5zdDF7c3RvcC1jb2xvcjojMjIzNTQ4O30mI3hhOwkgIDwvc3R5bGU+JiN4YTsJPGRlZnM+JiN4YTsJCTxsaW5lYXJHcmFkaWVudCBncmFkaWVudFVuaXRzPSJ1c2VyU3BhY2VPblVzZSIgeTI9IjQyLjcwNyIgeDI9IjIzLjQ1NCIgeTE9Ii0uNSIgeDE9IjIzLjQ1NCIgaWQ9IkEiPiYjeGE7CQkJPHN0b3AgY2xhc3M9InN0MCIvPiYjeGE7CQkJPHN0b3AgY2xhc3M9InN0MSIgb2Zmc2V0PSIxIi8+JiN4YTsJCTwvbGluZWFyR3JhZGllbnQ+JiN4YTsJPC9kZWZzPiYjeGE7CTxwYXRoIGZpbGw9InVybCgjQSkiIGQ9Ik00Ni40NjggMTQuNDQ1Yy4yNTIuMjUyLjQ2OC41MzEuNjU3Ljg0M2ExLjk3IDEuOTcgMCAwIDEgLjI4MiAxLjAzMnYxOS4xMjVjMCAxLjMxNC0uNjI3IDIuMTI3LTEuODc1IDIuNDM5bC0yNCA0Ljc4MmMtLjgxMy4xMjMtMS40NC0uMDMtMS44NzUtLjQ3MS0uMjUzLS4yNTMtLjQ3My0uNTM2LS42NTctLjg0My0uMTczLS4zMTgtLjI2OS0uNjcxLS4yODItMS4wMzJWMjEuMTAyYzAtMS4zNzQuNjI3LTIuMTU3IDEuODc1LTIuMzQzbDI0LTQuNzgyYy4zMTIgMCAuNjI3LjAzLjkzOS4wOTNhMS4yNyAxLjI3IDAgMCAxIC45MzYuMzc1em0tMy44NDMgNC43ODJMMjMuNSAyMy4wN3YxNC4zNDNsMTkuMTI1LTMuODR6TTM3Ljg0MyA4LjYzNGMuMTIuNjUtLjAxNCAxLjMyMS0uMzc1IDEuODc1LS4xNTMuMjc2LS4zNjguNTEzLS42MjkuNjkycy0uNTU5LjI5NC0uODcxLjMzN2wtMjIuMDMyIDQuMzE0djE3LjI1YzAgLjY5LS4yNDkgMS4yNTEtLjc1IDEuNjg5LS4yMjIuMjE4LS40ODYuMzg3LS43NzYuNDk5YTIuMjkgMi4yOSAwIDAgMS0uOTEuMTUyYy0xLjU2IDAtMi4zNDMtLjc4LTIuMzQzLTIuMzQzVjEzLjk3N2MwLTEuMzE0LjYyNC0yLjEyNCAxLjg3NS0yLjQzOWwyNC00Ljc3OWMuNTYxLS4xMjYgMS4xMjUuMDMgMS42ODYuNDY4LjYyNy4zNzUgMS4wMDIuODQzIDEuMTI1IDEuNDA3em0tOS41NjEtNy4xMjVjLjEyMy41NjEgMCAxLjE1NS0uMzc1IDEuNzc5LS4xNTMuMjc3LS4zNjguNTE0LS42MjguNjkzcy0uNTU5LjI5NS0uODcyLjMzOUw0LjI4MiA4LjYzNHYxNy4yNWMwIDEuNjIzLS43OCAyLjQzNi0yLjM0NiAyLjQzNi0uNjU0LjAxMS0xLjI4OS0uMjIzLTEuNzc5LS42NTctLjQzOC0uNDM1LS42NTctMS4wMjktLjY1Ny0xLjc3OVY2Ljc1OWMwLTEuMzE0LjY1Ny0yLjEyNyAxLjk2OC0yLjQzOUwyNS4zNzUtLjQ2MmMuMzEzLS4wNi42MzYtLjA0OS45NDUuMDMycy41OTUuMjMyLjgzNy40MzljLjYyNC4zNzUuOTk5Ljg3MyAxLjEyNSAxLjV6Ii8+JiN4YTs8L3N2Zz4=;labelPosition=right;align=left;fontStyle=0;fontColor=#233955;" vertex="1" parent="1">
          <mxGeometry x="310" y="240" width="33.49" height="30" as="geometry" />
        </mxCell>
        <mxCell id="w4TNwY7dQcReaOa-zlrU-10" value="Backup &#xa;Message &#xa;in CPI" style="shape=image;editableCssRules=.*;verticalLabelPosition=middle;labelBackgroundColor=default;verticalAlign=middle;aspect=fixed;imageAspect=0;image=data:image/svg+xml,PHN2ZyB4bWxucz0iaHR0cDovL3d3dy53My5vcmcvMjAwMC9zdmciIHZpZXdCb3g9Ii0wLjUgLTAuNSA0MC45NDEgNDUuMDg4IiBoZWlnaHQ9IjQ1LjA4OCIgd2lkdGg9IjQwLjk0MSI+JiN4YTsJICA8c3R5bGUgdHlwZT0idGV4dC9jc3MiPi5zdDAgeyBzdG9wLWNvbG9yOiByZ2IoMzUsIDE0OSwgMjU1KTsgfSAuc3QxIHsgc3RvcC1jb2xvcjogcmdiKDAsIDg3LCAyMTApOyB9IDwvc3R5bGU+JiN4YTsJPGRlZnM+JiN4YTsJCTxsaW5lYXJHcmFkaWVudCBncmFkaWVudFVuaXRzPSJ1c2VyU3BhY2VPblVzZSIgeTI9IjM3LjczOCIgeDI9IjM3LjYwMiIgeTE9IjUuOSIgeDE9IjMuMjEzIiBpZD0iQSI+JiN4YTsJCQk8c3RvcCBjbGFzcz0ic3QwIi8+JiN4YTsJCQk8c3RvcCBjbGFzcz0ic3QxIiBvZmZzZXQ9IjEiLz4mI3hhOwkJPC9saW5lYXJHcmFkaWVudD4mI3hhOwk8L2RlZnM+JiN4YTsJPHBhdGggZmlsbD0idXJsKCNBKSIgZD0iTTM4LjE0NyA0LjA4OGMuNzA2LjU4OCAxLjI2NSAxLjIzNSAxLjY3NiAxLjk0MS40MTIuNjQ3LjYxOCAxLjQ0MS42MTggMi4zODJ2MjcuMzUzYzAgLjg4Mi0uMjM1IDEuNjc2LS43MDYgMi4zODJzLTEgMS4zNTMtMS41ODggMS45NDFjLS41MjkuNDcxLTEuMjA2LjkxMi0yLjAzIDEuMzI0LS43NjUuNDEyLTEuNTg4Ljc5NC0yLjQ3MSAxLjE0Ny0xLjgyMy43MDYtMy45MTIgMS4yMDYtNi4yNjUgMS41LTIuMjk0LjM1My00Ljc2NS41MjktNy40MTIuNTI5cy01LjE0Ny0uMTc2LTcuNS0uNTI5Yy0yLjI5NC0uMjk0LTQuMzUzLS43OTQtNi4xNzYtMS41bC0yLjQ3MS0uOTdhOC42NCA4LjY0IDAgMCAxLTIuMDI5LTEuNUMuMjY1IDM4Ljg1My0uNSAzNy40MTItLjUgMzUuNzY1VjguNDEyYzAtLjk0MS4yMzUtMS43MzUuNzA2LTIuMzgyLjQ3MS0uNzA2IDEtMS4zNTMgMS41ODgtMS45NDEgMS4xNzYtMSAyLjY3Ni0xLjg1MyA0LjUtMi41NTlDOC4xMTguODgyIDEwLjE3Ni4zODIgMTIuNDcxLjAyOWMyLjM1My0uMzUzIDQuODUzLS41MjkgNy41LS41MjlzNS4xMTguMTc2IDcuNDEyLjUyOWMyLjM1My4zNTMgNC40NDEuODUzIDYuMjY1IDEuNS44ODIuMzUzIDEuNzA2LjczNSAyLjQ3MSAxLjE0Ny44MjQuMzUzIDEuNS44MjQgMi4wMyAxLjQxMnptLTIuMjA2IDE5LjMyNGMtMi43NjUuOTQxLTUuMzgyIDEuNjc2LTcuODUzIDIuMjA2LTIuNDEyLjUyOS01LjExOC43OTQtOC4xMTguNzk0LTIuNjQ3IDAtNS4xNDctLjE3Ny03LjUtLjUyOS0yLjI5NC0uMzUzLTQuMzUzLS44NTMtNi4xNzYtMS41LS45NDEtLjI5NC0xLjcwNi0uNjE4LTIuMjk0LS45NzF2My4xNzdsLjE3Ni4zNTNjLjA1OS4xMTguMjM1LjMyNC41MjkuNjE4Ljc2NS43MDYgMS43OTQgMS4yOTQgMy4wODggMS43NjUgMS4zNTMuNDcxIDIuNzY1Ljg1MyA0LjIzNSAxLjE0N2w0LjMyNC41MjkgMy42MTguMTc2YTUwLjQ1IDUwLjQ1IDAgMCAwIDcuOTQxLS42MThjMi41ODgtLjQ3IDUuMDI5LTEuNDcgNy4zMjMtMyAuMzUzLS4yMzUuNTU5LS40NDEuNjE4LS42MTguMDU5LS4xMTguMDg4LS4yMzUuMDg4LS4zNTN6bTAtOS4wODhjLTIuNzY1Ljk0MS01LjM4MiAxLjY3Ni03Ljg1MyAyLjIwNi0yLjQxMi41MjktNS4xMTguNzk0LTguMTE4Ljc5NC0uODgyIDAtMi4wNTktLjA1OS0zLjUyOS0uMTc2bC00LjU4OC0uNTI5LTQuNS0uODgyYy0xLjQxMi0uNDEyLTIuNTI5LS44ODItMy4zNTMtMS40MTJWMTcuNWMwIC4wNTkuMDI5LjE0Ny4wODguMjY1LjExOC4wNTkuMjA2LjE0Ny4yNjUuMjY1bC4zNTMuMzUzYy43NjUuNzY1IDEuNzk0IDEuMzgyIDMuMDg4IDEuODUzIDEuMzUzLjQ3MSAyLjc2NS44NTMgNC4yMzUgMS4xNDdsNC4zMjQuNTI5IDMuNjE4LjE3NmMyLjcwNiAwIDUuMzUzLS4yMzUgNy45NDEtLjcwNnM1LjAyOS0xLjQ3MSA3LjMyMy0zYy4zNTMtLjIzNS41NTktLjQ0MS42MTgtLjYxOC4wNTktLjExOC4wODgtLjIwNi4wODgtLjI2NXpNNC43MDYgNy41MjljLS4yOTQuMTE4LS41LjMyNC0uNjE4LjYxOC0uMDU5LjExOC0uMDg4LjIwNi0uMDg4LjI2NXMuMDI5LjE0Ny4wODguMjY1Yy4xMTguMDU5LjIwNi4xNDcuMjY1LjI2NWwuMzUzLjM1M2MuNzY1Ljc2NSAxLjc5NCAxLjM4MiAzLjA4OCAxLjg1MyAxLjM1My40NzEgMi43NjUuODUzIDQuMjM1IDEuMTQ3bDQuMzI0LjUyOSAzLjYxOC4xNzZjMi40MTIgMCA0LjY0Ny0uMTQ3IDYuNzA2LS40NDEgMi4wNTktLjM1MyAzLjg1My0uODI0IDUuMzgyLTEuNDEybDMuMTc2LTEuODUzYy4zNTMtLjIzNS41NTktLjQ0MS42MTgtLjYxOC4wNTktLjExOC4wODgtLjIwNi4wODgtLjI2NS0uMDU5LS4wNTktLjExNy0uMTQ3LS4xNzYtLjI2NXMtLjIzNS0uMzI0LS41MjktLjYxOGMtLjc2NS0uNzY1LTEuODIzLTEuMzgyLTMuMTc2LTEuODUzLTEuMjk0LS40NzEtMi42NzYtLjgyNC00LjE0Ny0xLjA1OS0xLjQ3MS0uMjk0LTIuOTQxLS41LTQuNDEyLS42MThsLTMuNTI5LS4xNzZjLTIuNzA2IDAtNS4zNTMuMjM1LTcuOTQxLjcwNlM3IDYgNC43MDYgNy41Mjl6bTMwLjUyOSAyOS4xMThjLjM1My0uMjM1LjU1OS0uNDQxLjYxOC0uNjE4LjA1OS0uMTE3LjA4OC0uMjA2LjA4OC0uMjY1VjMyLjVjLS4wNTkuMDU5LS4xMTcuMDg4LS4xNzYuMDg4cy0uMDg4LjAyOS0uMDg4LjA4OEgzNS41bC0uMTc2LjA4OGMtLjA1OS4wNTktLjExOC4wODgtLjE3Ni4wODgtMi42NDcgMS01LjE0NyAxLjcwNi03LjUgMi4xMTgtMi4yOTQuMzUzLTQuODUzLjUyOS03LjY3Ni41MjktLjg4MiAwLTIuMDU5LS4wNTktMy41MjktLjE3NmwtNC41ODgtLjUyOS00LjUtLjg4MkM1Ljk0MSAzMy41IDQuODI0IDMzLjAyOSA0IDMyLjV2My4yNjVjMCAuMDU5LjAyOS4xNDcuMDg4LjI2NS4wNTkuMTc2LjI2NS4zODMuNjE4LjYxOC43NjUuNzY1IDEuNzk0IDEuMzgyIDMuMDg4IDEuODUzIDEuMzUzLjQ3MSAyLjc2NS44NTMgNC4yMzUgMS4xNDdsNC4zMjQuNTI5IDMuNjE4LjA4OGMyLjcwNiAwIDUuMzUzLS4yMDYgNy45NDEtLjYxOCAyLjU4OC0uNDcxIDUuMDI5LTEuNDcgNy4zMjMtM3oiLz4mI3hhOzwvc3ZnPg==;labelPosition=right;align=left;" vertex="1" parent="1">
          <mxGeometry x="487.67" y="240" width="27.33" height="30" as="geometry" />
        </mxCell>
        <mxCell id="w4TNwY7dQcReaOa-zlrU-11" value="Backup &#xa;Message &#xa;in SFTP" style="shape=image;editableCssRules=.*;verticalLabelPosition=middle;labelBackgroundColor=default;verticalAlign=middle;aspect=fixed;imageAspect=0;image=data:image/svg+xml,PHN2ZyB4bWxucz0iaHR0cDovL3d3dy53My5vcmcvMjAwMC9zdmciIHZpZXdCb3g9Ii0wLjUgLTAuNSA0MC45NDEgNDUuMDg4IiBoZWlnaHQ9IjQ1LjA4OCIgd2lkdGg9IjQwLjk0MSI+JiN4YTsJICA8c3R5bGUgdHlwZT0idGV4dC9jc3MiPi5zdDAgeyBzdG9wLWNvbG9yOiByZ2IoMzUsIDE0OSwgMjU1KTsgfSAuc3QxIHsgc3RvcC1jb2xvcjogcmdiKDAsIDg3LCAyMTApOyB9IDwvc3R5bGU+JiN4YTsJPGRlZnM+JiN4YTsJCTxsaW5lYXJHcmFkaWVudCBncmFkaWVudFVuaXRzPSJ1c2VyU3BhY2VPblVzZSIgeTI9IjM3LjczOCIgeDI9IjM3LjYwMiIgeTE9IjUuOSIgeDE9IjMuMjEzIiBpZD0iQSI+JiN4YTsJCQk8c3RvcCBjbGFzcz0ic3QwIi8+JiN4YTsJCQk8c3RvcCBjbGFzcz0ic3QxIiBvZmZzZXQ9IjEiLz4mI3hhOwkJPC9saW5lYXJHcmFkaWVudD4mI3hhOwk8L2RlZnM+JiN4YTsJPHBhdGggZmlsbD0idXJsKCNBKSIgZD0iTTM4LjE0NyA0LjA4OGMuNzA2LjU4OCAxLjI2NSAxLjIzNSAxLjY3NiAxLjk0MS40MTIuNjQ3LjYxOCAxLjQ0MS42MTggMi4zODJ2MjcuMzUzYzAgLjg4Mi0uMjM1IDEuNjc2LS43MDYgMi4zODJzLTEgMS4zNTMtMS41ODggMS45NDFjLS41MjkuNDcxLTEuMjA2LjkxMi0yLjAzIDEuMzI0LS43NjUuNDEyLTEuNTg4Ljc5NC0yLjQ3MSAxLjE0Ny0xLjgyMy43MDYtMy45MTIgMS4yMDYtNi4yNjUgMS41LTIuMjk0LjM1My00Ljc2NS41MjktNy40MTIuNTI5cy01LjE0Ny0uMTc2LTcuNS0uNTI5Yy0yLjI5NC0uMjk0LTQuMzUzLS43OTQtNi4xNzYtMS41bC0yLjQ3MS0uOTdhOC42NCA4LjY0IDAgMCAxLTIuMDI5LTEuNUMuMjY1IDM4Ljg1My0uNSAzNy40MTItLjUgMzUuNzY1VjguNDEyYzAtLjk0MS4yMzUtMS43MzUuNzA2LTIuMzgyLjQ3MS0uNzA2IDEtMS4zNTMgMS41ODgtMS45NDEgMS4xNzYtMSAyLjY3Ni0xLjg1MyA0LjUtMi41NTlDOC4xMTguODgyIDEwLjE3Ni4zODIgMTIuNDcxLjAyOWMyLjM1My0uMzUzIDQuODUzLS41MjkgNy41LS41MjlzNS4xMTguMTc2IDcuNDEyLjUyOWMyLjM1My4zNTMgNC40NDEuODUzIDYuMjY1IDEuNS44ODIuMzUzIDEuNzA2LjczNSAyLjQ3MSAxLjE0Ny44MjQuMzUzIDEuNS44MjQgMi4wMyAxLjQxMnptLTIuMjA2IDE5LjMyNGMtMi43NjUuOTQxLTUuMzgyIDEuNjc2LTcuODUzIDIuMjA2LTIuNDEyLjUyOS01LjExOC43OTQtOC4xMTguNzk0LTIuNjQ3IDAtNS4xNDctLjE3Ny03LjUtLjUyOS0yLjI5NC0uMzUzLTQuMzUzLS44NTMtNi4xNzYtMS41LS45NDEtLjI5NC0xLjcwNi0uNjE4LTIuMjk0LS45NzF2My4xNzdsLjE3Ni4zNTNjLjA1OS4xMTguMjM1LjMyNC41MjkuNjE4Ljc2NS43MDYgMS43OTQgMS4yOTQgMy4wODggMS43NjUgMS4zNTMuNDcxIDIuNzY1Ljg1MyA0LjIzNSAxLjE0N2w0LjMyNC41MjkgMy42MTguMTc2YTUwLjQ1IDUwLjQ1IDAgMCAwIDcuOTQxLS42MThjMi41ODgtLjQ3IDUuMDI5LTEuNDcgNy4zMjMtMyAuMzUzLS4yMzUuNTU5LS40NDEuNjE4LS42MTguMDU5LS4xMTguMDg4LS4yMzUuMDg4LS4zNTN6bTAtOS4wODhjLTIuNzY1Ljk0MS01LjM4MiAxLjY3Ni03Ljg1MyAyLjIwNi0yLjQxMi41MjktNS4xMTguNzk0LTguMTE4Ljc5NC0uODgyIDAtMi4wNTktLjA1OS0zLjUyOS0uMTc2bC00LjU4OC0uNTI5LTQuNS0uODgyYy0xLjQxMi0uNDEyLTIuNTI5LS44ODItMy4zNTMtMS40MTJWMTcuNWMwIC4wNTkuMDI5LjE0Ny4wODguMjY1LjExOC4wNTkuMjA2LjE0Ny4yNjUuMjY1bC4zNTMuMzUzYy43NjUuNzY1IDEuNzk0IDEuMzgyIDMuMDg4IDEuODUzIDEuMzUzLjQ3MSAyLjc2NS44NTMgNC4yMzUgMS4xNDdsNC4zMjQuNTI5IDMuNjE4LjE3NmMyLjcwNiAwIDUuMzUzLS4yMzUgNy45NDEtLjcwNnM1LjAyOS0xLjQ3MSA3LjMyMy0zYy4zNTMtLjIzNS41NTktLjQ0MS42MTgtLjYxOC4wNTktLjExOC4wODgtLjIwNi4wODgtLjI2NXpNNC43MDYgNy41MjljLS4yOTQuMTE4LS41LjMyNC0uNjE4LjYxOC0uMDU5LjExOC0uMDg4LjIwNi0uMDg4LjI2NXMuMDI5LjE0Ny4wODguMjY1Yy4xMTguMDU5LjIwNi4xNDcuMjY1LjI2NWwuMzUzLjM1M2MuNzY1Ljc2NSAxLjc5NCAxLjM4MiAzLjA4OCAxLjg1MyAxLjM1My40NzEgMi43NjUuODUzIDQuMjM1IDEuMTQ3bDQuMzI0LjUyOSAzLjYxOC4xNzZjMi40MTIgMCA0LjY0Ny0uMTQ3IDYuNzA2LS40NDEgMi4wNTktLjM1MyAzLjg1My0uODI0IDUuMzgyLTEuNDEybDMuMTc2LTEuODUzYy4zNTMtLjIzNS41NTktLjQ0MS42MTgtLjYxOC4wNTktLjExOC4wODgtLjIwNi4wODgtLjI2NS0uMDU5LS4wNTktLjExNy0uMTQ3LS4xNzYtLjI2NXMtLjIzNS0uMzI0LS41MjktLjYxOGMtLjc2NS0uNzY1LTEuODIzLTEuMzgyLTMuMTc2LTEuODUzLTEuMjk0LS40NzEtMi42NzYtLjgyNC00LjE0Ny0xLjA1OS0xLjQ3MS0uMjk0LTIuOTQxLS41LTQuNDEyLS42MThsLTMuNTI5LS4xNzZjLTIuNzA2IDAtNS4zNTMuMjM1LTcuOTQxLjcwNlM3IDYgNC43MDYgNy41Mjl6bTMwLjUyOSAyOS4xMThjLjM1My0uMjM1LjU1OS0uNDQxLjYxOC0uNjE4LjA1OS0uMTE3LjA4OC0uMjA2LjA4OC0uMjY1VjMyLjVjLS4wNTkuMDU5LS4xMTcuMDg4LS4xNzYuMDg4cy0uMDg4LjAyOS0uMDg4LjA4OEgzNS41bC0uMTc2LjA4OGMtLjA1OS4wNTktLjExOC4wODgtLjE3Ni4wODgtMi42NDcgMS01LjE0NyAxLjcwNi03LjUgMi4xMTgtMi4yOTQuMzUzLTQuODUzLjUyOS03LjY3Ni41MjktLjg4MiAwLTIuMDU5LS4wNTktMy41MjktLjE3NmwtNC41ODgtLjUyOS00LjUtLjg4MkM1Ljk0MSAzMy41IDQuODI0IDMzLjAyOSA0IDMyLjV2My4yNjVjMCAuMDU5LjAyOS4xNDcuMDg4LjI2NS4wNTkuMTc2LjI2NS4zODMuNjE4LjYxOC43NjUuNzY1IDEuNzk0IDEuMzgyIDMuMDg4IDEuODUzIDEuMzUzLjQ3MSAyLjc2NS44NTMgNC4yMzUgMS4xNDdsNC4zMjQuNTI5IDMuNjE4LjA4OGMyLjcwNiAwIDUuMzUzLS4yMDYgNy45NDEtLjYxOCAyLjU4OC0uNDcxIDUuMDI5LTEuNDcgNy4zMjMtM3oiLz4mI3hhOzwvc3ZnPg==;labelPosition=right;align=left;" vertex="1" parent="1">
          <mxGeometry x="660" y="240" width="27.33" height="30" as="geometry" />
        </mxCell>
        <mxCell id="w4TNwY7dQcReaOa-zlrU-12" value="Message &#xa;Decryption" style="shape=image;editableCssRules=.*;verticalLabelPosition=middle;labelBackgroundColor=default;verticalAlign=middle;aspect=fixed;imageAspect=0;image=data:image/svg+xml,PHN2ZyB4bWxucz0iaHR0cDovL3d3dy53My5vcmcvMjAwMC9zdmciIHZpZXdCb3g9Ii0wLjUgLTAuNSAyOC4wMDIgMjgiIGhlaWdodD0iMjgiIHdpZHRoPSIyOC4wMDIiPiYjeGE7CSAgPHN0eWxlIHR5cGU9InRleHQvY3NzIj4uc3QwIHsgc3RvcC1jb2xvcjogcmdiKDM1LCAxNDksIDI1NSk7IH0gLnN0MSB7IHN0b3AtY29sb3I6IHJnYigwLCA4NywgMjEwKTsgfSA8L3N0eWxlPiYjeGE7CTxkZWZzPiYjeGE7CQk8bGluZWFyR3JhZGllbnQgZ3JhZGllbnRVbml0cz0idXNlclNwYWNlT25Vc2UiIHkyPSIyNS4zMSIgeDI9IjIzLjQ1NCIgeTE9IjMuNDc0IiB4MT0iMi4wMzkiIGlkPSJBIj4mI3hhOwkJCTxzdG9wIGNsYXNzPSJzdDAiLz4mI3hhOwkJCTxzdG9wIGNsYXNzPSJzdDEiIG9mZnNldD0iMSIvPiYjeGE7CQk8L2xpbmVhckdyYWRpZW50PiYjeGE7CTwvZGVmcz4mI3hhOwk8cGF0aCBmaWxsPSJ1cmwoI0EpIiBkPSJNMjcuMDYzIDIwLjkyNGMuMjkzLjI5My40MzguNjIxLjQzOC45ODd2NC4xNjVjMCAuOTQ5LS40NzQgMS40MjQtMS40MjYgMS40MjRoLTQuMTYzYy0uMTg2LS4wMDItLjM2OS0uMDQyLS41MzktLjExN3MtLjMyMi0uMTg1LS40NDgtLjMyMWwtLjk4Ny0uOTg1aC0yLjI0NGExLjUzIDEuNTMgMCAwIDEtMS4wNDMtLjM4NGMtLjEyOC0uMTMtLjIyNy0uMjg0LS4yOTMtLjQ1NHMtLjA5Ni0uMzUxLS4wODktLjUzM3YtMS40MjRoLTEuMzdhMS41MyAxLjUzIDAgMCAxLTEuMDQyLS4zODRjLS4xMjgtLjEzLS4yMjgtLjI4NC0uMjk0LS40NTNzLS4wOTctLjM1MS0uMDktLjUzMnYtMS40MjZoLTEuMzdjLS45NSAwLTEuNDI2LS40NzMtMS40MjYtMS40MjRWMTYuODdsLS41NDctLjYwM0g3Ljg4NGMtMS4xMzEgMC0yLjIwOS0uMjE5LTMuMjMyLS42NThhOC40OCA4LjQ4IDAgMCAxLTIuNjg1LTEuODA4Yy0uNzcxLS43Ny0xLjM4Ni0xLjY4Mi0xLjgxMS0yLjY4NUE4LjEyIDguMTIgMCAwIDEtLjUgNy44ODRjMC0xLjE3LjIxOS0yLjI0Ni42NTgtMy4yMzMuNDI1LTEuMDAzIDEuMDM5LTEuOTE0IDEuODA4LTIuNjg1UzMuNjUuNTgyIDQuNjU0LjE1OEE4LjEyIDguMTIgMCAwIDEgNy44ODUtLjVjMS4xNjggMCAyLjI0NC4yMTkgMy4yMzIuNjU4IDEuMDI0LjQzOCAxLjkxOCAxLjA0IDIuNjg2IDEuODA2czEuMzY4IDEuNjY0IDEuODA2IDIuNjg2Yy40MzguOTg3LjY1OSAyLjA2NC42NTkgMy4yMzN2Mi4yNDV6bS0yLjM1NyAxLjUzNEwxMy45MTIgMTEuNjY0YTEuMzYgMS4zNiAwIDAgMS0uMzIxLS40NDdjLS4wNzUtLjE2OS0uMTE1LS4zNTItLjExOC0uNTM4VjcuODg0YzAtLjc2OC0uMTQ2LTEuNDgtLjQzOC0yLjEzOC0uMjgtLjY3Ni0uNjktMS4yOS0xLjIwNy0xLjgwOGE1LjYgNS42IDAgMCAwLTEuODA2LTEuMjA2IDUuMiA1LjIgMCAwIDAtMi4xMzktLjQzOGMtLjc2NiAwLTEuNDk3LjE0Ny0yLjE5Mi40MzhhNS43OCA1Ljc4IDAgMCAwLTEuNzUzIDEuMjA2IDUuNjEgNS42MSAwIDAgMC0xLjIwNSAxLjgwOGMtLjI5My42NTgtLjQzOCAxLjM2OS0uNDM4IDIuMTM4cy4xNDYgMS40OTcuNDM4IDIuMTkyYTUuNzkgNS43OSAwIDAgMCAxLjIwNiAxLjc1NGMuNTEuNTEgMS4wOTQuOTEyIDEuNzU0IDEuMjA1LjY5My4yOTMgMS40MjQuNDM4IDIuMTkyLjQzOGgyLjc5M2MuMzY3IDAgLjY5NC4xNDcuOTg3LjQzOGwxLjQyNCAxLjQyNmMuMTI0LjEyLjIyMi4yNjUuMjg4LjQyNWExLjI3IDEuMjcgMCAwIDEgLjA5Ni41MDR2MS40MjZoMS40MjZjLjkxMiAwIDEuMzY4LjQ1NiAxLjM2OCAxLjM2OHYxLjQyNWgxLjQyNmMuNDAzIDAgLjczMS4xMjguOTg3LjM4NC4yOTEuMjU2LjQzOC42MDMuNDM4IDEuMDQxdjEuMzY5aDEuMzY5Yy4zNjUgMCAuNjk0LjE0Ni45ODcuNDM4bC45ODUuOTg3aDIuMjQ2ek03Ljg4NCA1LjA4OGMuNzY4IDAgMS40MjYuMjc0IDEuOTczLjgyMnMuODI0IDEuMjA1LjgyNCAxLjk3M2EyLjY5IDIuNjkgMCAwIDEtLjgyNCAxLjk3MyAyLjY5IDIuNjkgMCAwIDEtMS45NzMuODIyIDIuNjkgMi42OSAwIDAgMS0xLjk3My0uODI0IDIuNjkgMi42OSAwIDAgMS0uODE5LTEuOTcxYzAtLjc2OC4yNzQtMS40MjYuODIyLTEuOTczYTIuNjkgMi42OSAwIDAgMSAxLjk3MS0uODIyeiIvPiYjeGE7PC9zdmc+;labelPosition=right;align=left;" vertex="1" parent="1">
          <mxGeometry x="659.3299999999999" y="334" width="28" height="28" as="geometry" />
        </mxCell>
        <mxCell id="w4TNwY7dQcReaOa-zlrU-14" style="edgeStyle=orthogonalEdgeStyle;rounded=0;orthogonalLoop=1;jettySize=auto;html=1;entryX=1;entryY=0.5;entryDx=0;entryDy=0;entryPerimeter=0;" edge="1" parent="1" source="kmOTIs-3_IvJB-gg4GxT-20" target="kmOTIs-3_IvJB-gg4GxT-23">
          <mxGeometry relative="1" as="geometry" />
        </mxCell>
        <mxCell id="w4TNwY7dQcReaOa-zlrU-15" value="&lt;span style=&quot;text-align: center; background-color: rgb(251, 251, 251);&quot;&gt;Business&amp;nbsp;&lt;/span&gt;&lt;div&gt;&lt;span style=&quot;text-align: center; background-color: rgb(251, 251, 251);&quot;&gt;Processing&amp;nbsp;&lt;/span&gt;&lt;br style=&quot;padding: 0px; margin: 0px; text-align: center; background-color: rgb(251, 251, 251);&quot;&gt;&lt;span style=&quot;text-align: center; background-color: rgb(251, 251, 251);&quot;&gt;Logic&lt;/span&gt;&lt;/div&gt;" style="image;aspect=fixed;html=1;points=[];align=left;fontSize=12;image=img/lib/azure2/integration/Logic_Apps_Custom_Connector.svg;labelPosition=right;verticalLabelPosition=middle;verticalAlign=middle;" vertex="1" parent="1">
          <mxGeometry x="320" y="333" width="30" height="30" as="geometry" />
        </mxCell>
        <mxCell id="w4TNwY7dQcReaOa-zlrU-16" value="&lt;span style=&quot;text-align: center; background-color: rgb(251, 251, 251);&quot;&gt;Write Log&amp;nbsp;&lt;/span&gt;&lt;div&gt;&lt;span style=&quot;text-align: center; background-color: rgb(251, 251, 251);&quot;&gt;to SF&lt;/span&gt;&lt;/div&gt;" style="image;aspect=fixed;html=1;points=[];align=left;fontSize=12;image=img/lib/azure2/analytics/Log_Analytics_Workspaces.svg;labelPosition=right;verticalLabelPosition=middle;verticalAlign=middle;" vertex="1" parent="1">
          <mxGeometry x="320" y="428" width="30" height="30" as="geometry" />
        </mxCell>
      </root>
    </mxGraphModel>
  </diagram>
  <diagram id="jaLdzjZMqU5EcabfTXuv" name="file name trace">
    <mxGraphModel dx="1302" dy="704" grid="1" gridSize="10" guides="1" tooltips="1" connect="1" arrows="1" fold="1" page="1" pageScale="1" pageWidth="850" pageHeight="1100" math="0" shadow="0">
      <root>
        <mxCell id="0" />
        <mxCell id="1" parent="0" />
        <mxCell id="3D4w9roeIW6XdOlKDlof-1" value="Table" style="shape=table;startSize=30;container=1;collapsible=1;childLayout=tableLayout;fixedRows=1;rowLines=0;fontStyle=1;align=center;resizeLast=1;html=1;whiteSpace=wrap;" vertex="1" parent="1">
          <mxGeometry x="650" y="180" width="180" height="150" as="geometry" />
        </mxCell>
        <mxCell id="3D4w9roeIW6XdOlKDlof-2" value="" style="shape=tableRow;horizontal=0;startSize=0;swimlaneHead=0;swimlaneBody=0;fillColor=none;collapsible=0;dropTarget=0;points=[[0,0.5],[1,0.5]];portConstraint=eastwest;top=0;left=0;right=0;bottom=0;html=1;" vertex="1" parent="3D4w9roeIW6XdOlKDlof-1">
          <mxGeometry y="30" width="180" height="30" as="geometry" />
        </mxCell>
        <mxCell id="3D4w9roeIW6XdOlKDlof-3" value="PK,FK1" style="shape=partialRectangle;connectable=0;fillColor=none;top=0;left=0;bottom=0;right=0;fontStyle=1;overflow=hidden;html=1;whiteSpace=wrap;" vertex="1" parent="3D4w9roeIW6XdOlKDlof-2">
          <mxGeometry width="60" height="30" as="geometry">
            <mxRectangle width="60" height="30" as="alternateBounds" />
          </mxGeometry>
        </mxCell>
        <mxCell id="3D4w9roeIW6XdOlKDlof-4" value="Row 1" style="shape=partialRectangle;connectable=0;fillColor=none;top=0;left=0;bottom=0;right=0;align=left;spacingLeft=6;fontStyle=5;overflow=hidden;html=1;whiteSpace=wrap;" vertex="1" parent="3D4w9roeIW6XdOlKDlof-2">
          <mxGeometry x="60" width="120" height="30" as="geometry">
            <mxRectangle width="120" height="30" as="alternateBounds" />
          </mxGeometry>
        </mxCell>
        <mxCell id="3D4w9roeIW6XdOlKDlof-5" value="" style="shape=tableRow;horizontal=0;startSize=0;swimlaneHead=0;swimlaneBody=0;fillColor=none;collapsible=0;dropTarget=0;points=[[0,0.5],[1,0.5]];portConstraint=eastwest;top=0;left=0;right=0;bottom=1;html=1;" vertex="1" parent="3D4w9roeIW6XdOlKDlof-1">
          <mxGeometry y="60" width="180" height="30" as="geometry" />
        </mxCell>
        <mxCell id="3D4w9roeIW6XdOlKDlof-6" value="PK,FK2" style="shape=partialRectangle;connectable=0;fillColor=none;top=0;left=0;bottom=0;right=0;fontStyle=1;overflow=hidden;html=1;whiteSpace=wrap;" vertex="1" parent="3D4w9roeIW6XdOlKDlof-5">
          <mxGeometry width="60" height="30" as="geometry">
            <mxRectangle width="60" height="30" as="alternateBounds" />
          </mxGeometry>
        </mxCell>
        <mxCell id="3D4w9roeIW6XdOlKDlof-7" value="Row 2" style="shape=partialRectangle;connectable=0;fillColor=none;top=0;left=0;bottom=0;right=0;align=left;spacingLeft=6;fontStyle=5;overflow=hidden;html=1;whiteSpace=wrap;" vertex="1" parent="3D4w9roeIW6XdOlKDlof-5">
          <mxGeometry x="60" width="120" height="30" as="geometry">
            <mxRectangle width="120" height="30" as="alternateBounds" />
          </mxGeometry>
        </mxCell>
        <mxCell id="3D4w9roeIW6XdOlKDlof-8" value="" style="shape=tableRow;horizontal=0;startSize=0;swimlaneHead=0;swimlaneBody=0;fillColor=none;collapsible=0;dropTarget=0;points=[[0,0.5],[1,0.5]];portConstraint=eastwest;top=0;left=0;right=0;bottom=0;html=1;" vertex="1" parent="3D4w9roeIW6XdOlKDlof-1">
          <mxGeometry y="90" width="180" height="30" as="geometry" />
        </mxCell>
        <mxCell id="3D4w9roeIW6XdOlKDlof-9" value="" style="shape=partialRectangle;connectable=0;fillColor=none;top=0;left=0;bottom=0;right=0;editable=1;overflow=hidden;html=1;whiteSpace=wrap;" vertex="1" parent="3D4w9roeIW6XdOlKDlof-8">
          <mxGeometry width="60" height="30" as="geometry">
            <mxRectangle width="60" height="30" as="alternateBounds" />
          </mxGeometry>
        </mxCell>
        <mxCell id="3D4w9roeIW6XdOlKDlof-10" value="Row 3" style="shape=partialRectangle;connectable=0;fillColor=none;top=0;left=0;bottom=0;right=0;align=left;spacingLeft=6;overflow=hidden;html=1;whiteSpace=wrap;" vertex="1" parent="3D4w9roeIW6XdOlKDlof-8">
          <mxGeometry x="60" width="120" height="30" as="geometry">
            <mxRectangle width="120" height="30" as="alternateBounds" />
          </mxGeometry>
        </mxCell>
        <mxCell id="3D4w9roeIW6XdOlKDlof-11" value="" style="shape=tableRow;horizontal=0;startSize=0;swimlaneHead=0;swimlaneBody=0;fillColor=none;collapsible=0;dropTarget=0;points=[[0,0.5],[1,0.5]];portConstraint=eastwest;top=0;left=0;right=0;bottom=0;html=1;" vertex="1" parent="3D4w9roeIW6XdOlKDlof-1">
          <mxGeometry y="120" width="180" height="30" as="geometry" />
        </mxCell>
        <mxCell id="3D4w9roeIW6XdOlKDlof-12" value="" style="shape=partialRectangle;connectable=0;fillColor=none;top=0;left=0;bottom=0;right=0;editable=1;overflow=hidden;html=1;whiteSpace=wrap;" vertex="1" parent="3D4w9roeIW6XdOlKDlof-11">
          <mxGeometry width="60" height="30" as="geometry">
            <mxRectangle width="60" height="30" as="alternateBounds" />
          </mxGeometry>
        </mxCell>
        <mxCell id="3D4w9roeIW6XdOlKDlof-13" value="Row 4" style="shape=partialRectangle;connectable=0;fillColor=none;top=0;left=0;bottom=0;right=0;align=left;spacingLeft=6;overflow=hidden;html=1;whiteSpace=wrap;" vertex="1" parent="3D4w9roeIW6XdOlKDlof-11">
          <mxGeometry x="60" width="120" height="30" as="geometry">
            <mxRectangle width="120" height="30" as="alternateBounds" />
          </mxGeometry>
        </mxCell>
        <mxCell id="3D4w9roeIW6XdOlKDlof-19" style="edgeStyle=orthogonalEdgeStyle;rounded=0;orthogonalLoop=1;jettySize=auto;html=1;" edge="1" parent="1" source="3D4w9roeIW6XdOlKDlof-17" target="3D4w9roeIW6XdOlKDlof-18">
          <mxGeometry relative="1" as="geometry" />
        </mxCell>
        <mxCell id="3D4w9roeIW6XdOlKDlof-17" value="Queue" style="verticalLabelPosition=bottom;html=1;verticalAlign=top;align=center;strokeColor=none;fillColor=#00BEF2;shape=mxgraph.azure.queue_generic;pointerEvents=1;fontStyle=1" vertex="1" parent="1">
          <mxGeometry x="80" y="270" width="50" height="15" as="geometry" />
        </mxCell>
        <mxCell id="3D4w9roeIW6XdOlKDlof-23" style="edgeStyle=orthogonalEdgeStyle;rounded=0;orthogonalLoop=1;jettySize=auto;html=1;" edge="1" parent="1" source="3D4w9roeIW6XdOlKDlof-18">
          <mxGeometry relative="1" as="geometry">
            <mxPoint x="400" y="278" as="targetPoint" />
          </mxGeometry>
        </mxCell>
        <mxCell id="3D4w9roeIW6XdOlKDlof-18" value="SAP CPI" style="shape=mxgraph.sap.icon;labelPosition=center;verticalLabelPosition=bottom;align=center;verticalAlign=top;strokeWidth=1;strokeColor=#D5DADD;fillColor=#EDEFF0;gradientColor=#FCFCFC;gradientDirection=west;aspect=fixed;SAPIcon=SAP_Integration_Suite;fontStyle=1" vertex="1" parent="1">
          <mxGeometry x="250" y="252.5" width="50" height="50" as="geometry" />
        </mxCell>
        <mxCell id="3D4w9roeIW6XdOlKDlof-21" value="&lt;font style=&quot;font-size: 10px;&quot; face=&quot;arial&quot;&gt;&lt;span style=&quot;font-size: 10px;&quot;&gt;Header: FileName&lt;/span&gt;&lt;/font&gt;" style="text;html=1;align=center;verticalAlign=middle;resizable=0;points=[[0,0.5,0,0,0],[0.5,0,0,0,0],[0.5,1,0,0,0],[1,0.5,0,0,0]];autosize=1;strokeColor=none;fillColor=none;fontSize=10;fontColor=#1D2D3E;fontFamily=Helvetica;fontStyle=1" vertex="1" parent="1">
          <mxGeometry x="130" y="250" width="100" height="30" as="geometry" />
        </mxCell>
        <mxCell id="3D4w9roeIW6XdOlKDlof-22" value="SuccessFactors" style="image;image=img/lib/sap/SAP_Logo.svg;editableCssRules=.*;verticalLabelPosition=middle;labelBackgroundColor=none;verticalAlign=middle;imageAspect=0;labelPosition=right;align=left;fontSize=16;fontStyle=1;spacingLeft=0;fontColor=#002A86;spacing=0;" vertex="1" parent="1">
          <mxGeometry x="407" y="200" width="37" height="19" as="geometry" />
        </mxCell>
        <mxCell id="3D4w9roeIW6XdOlKDlof-24" value="&lt;font style=&quot;font-size: 10px;&quot; face=&quot;arial&quot;&gt;&lt;span style=&quot;font-size: 10px;&quot;&gt;Message ID&lt;/span&gt;&lt;/font&gt;" style="text;html=1;align=center;verticalAlign=middle;resizable=0;points=[[0,0.5,0,0,0],[0.5,0,0,0,0],[0.5,1,0,0,0],[1,0.5,0,0,0]];autosize=1;strokeColor=none;fillColor=none;fontSize=10;fontColor=#1D2D3E;fontFamily=Helvetica;fontStyle=1" vertex="1" parent="1">
          <mxGeometry x="317" y="250" width="80" height="30" as="geometry" />
        </mxCell>
      </root>
    </mxGraphModel>
  </diagram>
</mxfile>
